<?xml version="1.0" encoding="UTF-8"?>
<svg version="1.1" xmlns="http://www.w3.org/2000/svg" width="512" height="512">
<path d="M0 0 C1.01790619 0.00215515 2.03581238 0.0043103 3.08456421 0.00653076 C17.69363523 0.05620146 32.02575853 0.30709809 46.375 3.3125 C47.34985352 3.51117676 48.32470703 3.70985352 49.32910156 3.91455078 C97.7109774 14.03517194 141.69928269 35.9516877 177.375 70.3125 C178.3640332 71.26068604 178.3640332 71.26068604 179.37304688 72.22802734 C188.86130305 81.37247479 197.6012044 90.66984009 205.375 101.3125 C206.23306152 102.46355017 207.09113451 103.61459177 207.94921875 104.765625 C213.98736829 112.95680614 219.34595521 121.47054105 224.375 130.3125 C224.73948242 130.94430176 225.10396484 131.57610352 225.47949219 132.22705078 C247.08534998 169.97532572 256.85198095 212.74189997 256.6875 255.9375 C256.68534485 256.95540619 256.6831897 257.97331238 256.68096924 259.02206421 C256.63129854 273.63113523 256.38040191 287.96325853 253.375 302.3125 C253.07698486 303.77478027 253.07698486 303.77478027 252.77294922 305.26660156 C242.65232806 353.6484774 220.7358123 397.63678269 186.375 433.3125 C185.74287598 433.97185547 185.11075195 434.63121094 184.45947266 435.31054688 C175.31502521 444.79880305 166.01765991 453.5387044 155.375 461.3125 C154.22394983 462.17056152 153.07290823 463.02863451 151.921875 463.88671875 C143.73224019 469.92427396 135.22961724 475.30707302 126.375 480.3125 C125.66778809 480.7146875 124.96057617 481.116875 124.23193359 481.53125 C101.09654164 494.5566741 75.92537591 503.30551461 49.9375 508.625 C49.21860596 508.77235596 48.49971191 508.91971191 47.7590332 509.0715332 C33.08339502 511.86090125 18.55831162 512.66142619 3.64770508 512.62817383 C0.70811513 512.6250221 -2.2304558 512.64854926 -5.16992188 512.67382812 C-18.54306192 512.71848737 -31.43916711 511.51301542 -44.625 509.3125 C-46.33055054 509.03031616 -46.33055054 509.03031616 -48.07055664 508.74243164 C-91.33802759 500.97044532 -132.38793216 480.98345309 -165.625 452.3125 C-166.37007813 451.67828125 -167.11515625 451.0440625 -167.8828125 450.390625 C-181.38779833 438.57948485 -194.05918743 425.82889772 -204.625 411.3125 C-205.48149066 410.16255169 -206.33826433 409.01281411 -207.1953125 407.86328125 C-213.23534209 399.67315742 -218.61867614 391.16870382 -223.625 382.3125 C-224.0271875 381.60528809 -224.429375 380.89807617 -224.84375 380.16943359 C-237.8691741 357.03404164 -246.61801461 331.86287591 -251.9375 305.875 C-252.08485596 305.15610596 -252.23221191 304.43721191 -252.3840332 303.6965332 C-255.35789088 288.05024391 -255.99800362 272.57681954 -255.9375 256.6875 C-255.93534485 255.66959381 -255.9331897 254.65168762 -255.93096924 253.60293579 C-255.88129854 238.99386477 -255.63040191 224.66174147 -252.625 210.3125 C-252.42632324 209.33764648 -252.22764648 208.36279297 -252.02294922 207.35839844 C-241.90232806 158.9765226 -219.9858123 114.98821731 -185.625 79.3125 C-184.99287598 78.65314453 -184.36075195 77.99378906 -183.70947266 77.31445312 C-174.56502521 67.82619695 -165.26765991 59.0862956 -154.625 51.3125 C-153.47394983 50.45443848 -152.32290823 49.59636549 -151.171875 48.73828125 C-142.98224019 42.70072604 -134.47961724 37.31792698 -125.625 32.3125 C-124.91778809 31.9103125 -124.21057617 31.508125 -123.48193359 31.09375 C-100.34654164 18.0683259 -75.17537591 9.31948539 -49.1875 4 C-48.46860596 3.85264404 -47.74971191 3.70528809 -47.0090332 3.5534668 C-31.36274391 0.57960912 -15.88931954 -0.06050362 0 0 Z " fill="#FF4141" transform="translate(255.625,-0.3125)"/>
<path d="M0 0 C0.75733429 0.00087616 1.51466858 0.00175232 2.29495239 0.00265503 C13.79780407 0.0465956 24.53589727 0.68740505 35.5 4.375 C36.27827148 4.62701172 37.05654297 4.87902344 37.85839844 5.13867188 C71.80498412 16.29809342 98.19579298 38.37569911 114.5 70.375 C127.33362232 96.24419504 132.27878125 126.45525434 122.90625 154.3125 C112.74521561 182.71101149 97.59009903 208.64806171 80.5 233.375 C80.0064502 234.08994629 79.51290039 234.80489258 79.00439453 235.54150391 C61.22202604 261.20528662 41.78155076 285.64967862 21.5 309.375 C20.47655586 310.57551517 19.45311855 311.77603617 18.4296875 312.9765625 C12.85573944 319.50547246 7.24132271 325.99200005 1.5 332.375 C-2.09721356 330.8795292 -4.13097221 328.84793692 -6.6875 325.9375 C-7.47511719 325.04160156 -8.26273437 324.14570313 -9.07421875 323.22265625 C-12.19642916 319.55745272 -15.23106719 315.82618851 -18.2578125 312.08203125 C-20.39483782 309.50196409 -22.60735745 307.02785515 -24.875 304.5625 C-28.85261685 300.19262681 -32.50876594 295.63890464 -36.12792969 290.97387695 C-39.72465939 286.34106507 -43.40897488 281.787485 -47.125 277.25 C-52.42732447 270.75087396 -57.55216477 264.14921736 -62.5 257.375 C-62.97904785 256.72337891 -63.4580957 256.07175781 -63.95166016 255.40039062 C-133.5827317 160.59284008 -133.5827317 160.59284008 -125.23828125 105.5234375 C-120.48134168 77.46082055 -106.53517297 54.25534165 -86.5 34.375 C-85.75363281 33.61960938 -85.00726563 32.86421875 -84.23828125 32.0859375 C-68.34939492 16.78552844 -47.87667002 7.14294649 -26.5 2.375 C-25.81067383 2.19839844 -25.12134766 2.02179688 -24.41113281 1.83984375 C-16.34272824 -0.05780705 -8.23908056 -0.02319984 0 0 Z " fill="#FFFEFE" transform="translate(255.5,89.625)"/>
<path d="M0 0 C9.49674384 7.61014238 16.97722735 17.81279481 19 30 C20.20723773 45.20784198 17.42142961 58.48643404 7.94921875 70.62890625 C-0.82776323 80.29096204 -12.61873025 86.28620774 -25.59375 87.2734375 C-39.38781529 87.6320832 -50.62269936 84.52294457 -61 75 C-61.90105469 74.28650391 -61.90105469 74.28650391 -62.8203125 73.55859375 C-67.25672101 69.74885281 -69.7587548 65.1416689 -72.375 60 C-72.72119385 59.32332275 -73.0673877 58.64664551 -73.42407227 57.94946289 C-78.18938015 48.10959762 -78.68731681 35.29377611 -75.9375 24.75 C-71.1093949 11.20884942 -60.85255308 0.22670274 -48 -6 C-32.14736279 -13.02197353 -14.0717796 -9.10382246 0 0 Z " fill="#FF4141" transform="translate(285,175)"/>
</svg>
