<?xml version="1.0" encoding="UTF-8"?>
<svg xmlns="http://www.w3.org/2000/svg" id="Layer_1" data-name="Layer 1" width="230.58" height="182.39" viewBox="0 0 230.58 182.39">
  <defs>
    <style>
      .cls-1, .cls-2, .cls-3, .cls-4 {
        stroke-width: 0px;
      }

      .cls-1, .cls-5 {
        fill: #004667;
      }

      .cls-2 {
        fill: #002d3e;
      }

      .cls-3 {
        fill: #abdef8;
      }

      .cls-4 {
        fill: #fff;
      }

      .cls-5 {
        font-family: Montserrat-Bold, Montserrat;
        font-size: 51.01px;
        font-weight: 700;
      }
    </style>
  </defs>
  <rect class="cls-1" x="68.45" y="147.79" width="93.67" height="29.07"></rect>
  <path class="cls-2" d="M62.53,171.03h105.51c4.12,0,7.46,3.34,7.46,7.46v3.89H55.07v-3.89c0-4.12,3.34-7.46,7.46-7.46Z"></path>
  <rect class="cls-2" x="37.32" y="-37.32" width="155.93" height="230.58" rx="14.87" ry="14.87" transform="translate(193.26 -37.32) rotate(90)"></rect>
  <rect class="cls-3" x="10" y="10" width="210.58" height="135.93" rx="4.87" ry="4.87"></rect>
  <path class="cls-1" d="M220.58,14.87v18.27H10V14.87c0-2.69,2.18-4.87,4.87-4.87h200.84c2.69,0,4.87,2.18,4.87,4.87Z"></path>
  <path class="cls-4" d="M206.1,20.77c0,1.79,1.45,3.23,3.23,3.23s3.23-1.45,3.23-3.23-1.45-3.23-3.23-3.23-3.23,1.45-3.23,3.23Z"></path>
  <path class="cls-4" d="M192.86,20.77c0,1.79,1.45,3.23,3.23,3.23s3.23-1.45,3.23-3.23-1.45-3.23-3.23-3.23-3.23,1.45-3.23,3.23Z"></path>
  <path class="cls-4" d="M179,20.77c0,1.79,1.45,3.23,3.23,3.23s3.23-1.45,3.23-3.23-1.45-3.23-3.23-3.23-3.23,1.45-3.23,3.23Z"></path>
  <text class="cls-5" transform="translate(53.76 86.76)">
    <tspan x="0" y="0">CMS</tspan>
  </text>
  <path class="cls-4" d="M202.19,107.56H26.88c-1.47,0-2.66-1.19-2.66-2.66h0c0-1.47,1.19-2.66,2.66-2.66h175.31c1.47,0,2.66,1.19,2.66,2.66h0c0,1.47-1.19,2.66-2.66,2.66Z"></path>
  <path class="cls-4" d="M202.19,120.87H26.88c-1.47,0-2.66-1.19-2.66-2.66h0c0-1.47,1.19-2.66,2.66-2.66h175.31c1.47,0,2.66,1.19,2.66,2.66h0c0,1.47-1.19,2.66-2.66,2.66Z"></path>
  <path class="cls-4" d="M64.63,134.18H26.88c-1.47,0-2.66-1.19-2.66-2.66h0c0-1.47,1.19-2.66,2.66-2.66h37.75c1.47,0,2.66,1.19,2.66,2.66h0c0,1.47-1.19,2.66-2.66,2.66Z"></path>
  <path class="cls-4" d="M132.99,134.18h-37.75c-1.47,0-2.66-1.19-2.66-2.66h0c0-1.47,1.19-2.66,2.66-2.66h37.75c1.47,0,2.66,1.19,2.66,2.66h0c0,1.47-1.19,2.66-2.66,2.66Z"></path>
  <path class="cls-4" d="M201.35,134.18h-37.75c-1.47,0-2.66-1.19-2.66-2.66h0c0-1.47,1.19-2.66,2.66-2.66h37.75c1.47,0,2.66,1.19,2.66,2.66h0c0,1.47-1.19,2.66-2.66,2.66Z"></path>
</svg>
