
<svg xmlns="http://www.w3.org/2000/svg" xmlns:xlink="http://www.w3.org/1999/xlink" width="150" zoomAndPan="magnify"
  viewBox="120 120 375 250" height="50" preserveAspectRatio="xMidYMid meet" version="1.0">
  <defs>
    <g />
    <clipPath id="fdcd488c8b">
      <path
        d="M 39.683594 148.015625 L 89.933594 148.015625 L 89.933594 195.265625 L 39.683594 195.265625 Z M 39.683594 148.015625 "
        clip-rule="nonzero" />
    </clipPath>
    <clipPath id="b171f4574e">
      <path
        d="M 84.234375 174.59375 L 134.484375 174.59375 L 134.484375 221.84375 L 84.234375 221.84375 Z M 84.234375 174.59375 "
        clip-rule="nonzero" />
    </clipPath>
    <clipPath id="c01ecda851">
      <rect x="0" width="194" y="0" height="34" />
    </clipPath>
  </defs>
  <g clip-path="url(#fdcd488c8b)">
    <path fill="#ffffff"
      d="M 40.429688 173.277344 L 88.515625 156.703125 L 87.695312 162.410156 L 60.523438 171.828125 L 85.0625 181.15625 L 84.242188 186.863281 L 52.296875 174.636719 L 48.039062 176.085938 L 83.894531 189.851562 L 83.074219 195.558594 L 39.699219 178.984375 Z M 41.699219 164.582031 L 89.785156 148.015625 L 88.964844 153.726562 L 40.890625 170.289062 Z M 41.699219 164.582031 "
      fill-opacity="1" fill-rule="nonzero" />
  </g>
  <g clip-path="url(#b171f4574e)">
    <path fill="#ee372b"
      d="M 133.734375 196.582031 L 85.652344 213.15625 L 86.472656 207.449219 L 113.644531 198.03125 L 89.105469 188.707031 L 89.921875 182.996094 L 121.871094 195.222656 L 126.128906 193.773438 L 90.273438 180.007812 L 91.09375 174.300781 L 134.464844 190.875 Z M 132.464844 205.28125 L 84.382812 221.84375 L 85.203125 216.132812 L 133.277344 199.570312 Z M 132.464844 205.28125 "
      fill-opacity="1" fill-rule="nonzero" />
  </g>
  <g transform="matrix(1, 0, 0, 1, 139, 190)">
    <g clip-path="url(#c01ecda851)">
      <g fill="#ffffff" fill-opacity="1">
        <g transform="translate(0.902505, 23.558282)">
          <g>
            <path
              d="M 8.609375 -22.421875 C 9.390625 -22.421875 10.09375 -22.351562 10.71875 -22.21875 C 11.34375 -22.09375 12.015625 -21.921875 12.734375 -21.703125 C 13.054688 -21.597656 13.382812 -21.503906 13.71875 -21.421875 C 14.0625 -21.347656 14.351562 -21.3125 14.59375 -21.3125 C 14.90625 -21.3125 15.15625 -21.394531 15.34375 -21.5625 C 15.539062 -21.738281 15.695312 -22.023438 15.8125 -22.421875 L 16.890625 -22.421875 L 16.890625 -15.25 L 15.875 -15.25 C 15.195312 -16.957031 14.226562 -18.316406 12.96875 -19.328125 C 11.71875 -20.347656 10.40625 -20.859375 9.03125 -20.859375 C 8.050781 -20.859375 7.265625 -20.613281 6.671875 -20.125 C 6.085938 -19.644531 5.796875 -19.003906 5.796875 -18.203125 C 5.796875 -17.609375 5.96875 -17.085938 6.3125 -16.640625 C 6.664062 -16.191406 7.113281 -15.796875 7.65625 -15.453125 C 8.207031 -15.117188 8.992188 -14.691406 10.015625 -14.171875 C 10.390625 -13.992188 10.945312 -13.710938 11.6875 -13.328125 C 13.164062 -12.535156 14.351562 -11.8125 15.25 -11.15625 C 16.144531 -10.507812 16.863281 -9.734375 17.40625 -8.828125 C 17.957031 -7.921875 18.234375 -6.851562 18.234375 -5.625 C 18.234375 -4.445312 17.921875 -3.382812 17.296875 -2.4375 C 16.679688 -1.488281 15.832031 -0.738281 14.75 -0.1875 C 13.664062 0.351562 12.46875 0.625 11.15625 0.625 C 10.332031 0.625 9.570312 0.539062 8.875 0.375 C 8.175781 0.207031 7.390625 -0.0234375 6.515625 -0.328125 C 5.578125 -0.671875 4.921875 -0.84375 4.546875 -0.84375 C 4.128906 -0.84375 3.75 -0.710938 3.40625 -0.453125 C 3.070312 -0.191406 2.863281 0.15625 2.78125 0.59375 L 1.734375 0.59375 L 1.734375 -7.078125 L 2.78125 -7.078125 C 3.5 -5.242188 4.535156 -3.785156 5.890625 -2.703125 C 7.242188 -1.617188 8.675781 -1.078125 10.1875 -1.078125 C 11.269531 -1.078125 12.164062 -1.378906 12.875 -1.984375 C 13.582031 -2.597656 13.9375 -3.378906 13.9375 -4.328125 C 13.9375 -5.085938 13.734375 -5.742188 13.328125 -6.296875 C 12.929688 -6.859375 12.40625 -7.347656 11.75 -7.765625 C 11.09375 -8.191406 10.15625 -8.734375 8.9375 -9.390625 C 7.9375 -9.921875 7.347656 -10.238281 7.171875 -10.34375 C 5.398438 -11.320312 4.0625 -12.285156 3.15625 -13.234375 C 2.25 -14.191406 1.796875 -15.398438 1.796875 -16.859375 C 1.796875 -17.878906 2.085938 -18.816406 2.671875 -19.671875 C 3.265625 -20.523438 4.078125 -21.195312 5.109375 -21.6875 C 6.148438 -22.175781 7.316406 -22.421875 8.609375 -22.421875 Z M 8.609375 -22.421875 " />
          </g>
        </g>
      </g>
      <g fill="#ffffff" fill-opacity="1">
        <g transform="translate(20.473141, 23.558282)">
          <g>
            <path
              d="M 13.453125 -22.421875 C 15.703125 -22.421875 17.769531 -21.90625 19.65625 -20.875 C 21.539062 -19.851562 23.03125 -18.460938 24.125 -16.703125 C 25.21875 -14.953125 25.765625 -13.019531 25.765625 -10.90625 C 25.765625 -8.78125 25.21875 -6.835938 24.125 -5.078125 C 23.03125 -3.328125 21.539062 -1.9375 19.65625 -0.90625 C 17.769531 0.113281 15.703125 0.625 13.453125 0.625 C 11.203125 0.625 9.140625 0.113281 7.265625 -0.90625 C 5.390625 -1.9375 3.90625 -3.335938 2.8125 -5.109375 C 1.71875 -6.878906 1.171875 -8.8125 1.171875 -10.90625 C 1.171875 -13 1.71875 -14.925781 2.8125 -16.6875 C 3.90625 -18.457031 5.390625 -19.851562 7.265625 -20.875 C 9.140625 -21.90625 11.203125 -22.421875 13.453125 -22.421875 Z M 6.28125 -10.90625 C 6.28125 -7.738281 6.90625 -5.285156 8.15625 -3.546875 C 9.414062 -1.816406 11.179688 -0.953125 13.453125 -0.953125 C 15.742188 -0.953125 17.515625 -1.816406 18.765625 -3.546875 C 20.023438 -5.285156 20.65625 -7.738281 20.65625 -10.90625 C 20.65625 -13.957031 20.046875 -16.378906 18.828125 -18.171875 C 17.617188 -19.960938 15.816406 -20.859375 13.421875 -20.859375 C 10.972656 -20.859375 9.171875 -19.910156 8.015625 -18.015625 C 6.859375 -16.128906 6.28125 -13.757812 6.28125 -10.90625 Z M 6.28125 -10.90625 " />
          </g>
        </g>
      </g>
      <g fill="#ffffff" fill-opacity="1">
        <g transform="translate(47.538216, 23.558282)">
          <g>
            <path
              d="M 12.859375 -20.984375 L 12.25 -20.984375 C 11.414062 -20.960938 10.773438 -20.878906 10.328125 -20.734375 C 9.878906 -20.597656 9.539062 -20.289062 9.3125 -19.8125 C 9.082031 -19.34375 8.96875 -18.648438 8.96875 -17.734375 L 8.96875 -3.796875 C 8.96875 -3.179688 9.007812 -2.738281 9.09375 -2.46875 C 9.1875 -2.195312 9.359375 -2.007812 9.609375 -1.90625 C 9.859375 -1.8125 10.253906 -1.765625 10.796875 -1.765625 L 15.1875 -1.765625 C 16.28125 -1.765625 17.175781 -1.882812 17.875 -2.125 C 18.570312 -2.363281 19.191406 -2.773438 19.734375 -3.359375 C 20.285156 -3.953125 20.863281 -4.816406 21.46875 -5.953125 L 22.546875 -5.953125 L 20.5625 0 L 0.59375 0 L 0.59375 -1.046875 L 1.4375 -1.046875 C 2.175781 -1.066406 2.757812 -1.160156 3.1875 -1.328125 C 3.613281 -1.492188 3.929688 -1.804688 4.140625 -2.265625 C 4.347656 -2.722656 4.453125 -3.382812 4.453125 -4.25 L 4.453125 -17.734375 C 4.453125 -18.609375 4.347656 -19.273438 4.140625 -19.734375 C 3.929688 -20.191406 3.601562 -20.507812 3.15625 -20.6875 C 2.707031 -20.863281 2.09375 -20.960938 1.3125 -20.984375 L 0.78125 -20.984375 L 0.78125 -22.03125 L 12.859375 -22.03125 Z M 12.859375 -20.984375 " />
          </g>
        </g>
      </g>
      <g fill="#ffffff" fill-opacity="1">
        <g transform="translate(70.839709, 23.558282)">
          <g>
            <path
              d="M 12.859375 -20.984375 L 12.015625 -20.984375 C 10.898438 -20.984375 10.109375 -20.765625 9.640625 -20.328125 C 9.171875 -19.890625 8.9375 -19.023438 8.9375 -17.734375 L 8.9375 -7.6875 C 8.9375 -6.46875 9.210938 -5.394531 9.765625 -4.46875 C 10.328125 -3.539062 11.113281 -2.8125 12.125 -2.28125 C 13.144531 -1.757812 14.332031 -1.5 15.6875 -1.5 C 17.144531 -1.5 18.441406 -1.785156 19.578125 -2.359375 C 20.710938 -2.941406 21.582031 -3.726562 22.1875 -4.71875 C 22.800781 -5.71875 23.109375 -6.816406 23.109375 -8.015625 L 23.109375 -18.0625 C 23.109375 -19.269531 22.832031 -20.054688 22.28125 -20.421875 C 21.738281 -20.796875 20.96875 -20.984375 19.96875 -20.984375 L 19.4375 -20.984375 L 19.4375 -22.03125 L 28.34375 -22.03125 L 28.34375 -20.984375 L 27.5625 -20.984375 C 26.601562 -20.984375 25.894531 -20.75 25.4375 -20.28125 C 24.976562 -19.8125 24.75 -18.960938 24.75 -17.734375 L 24.75 -8.1875 C 24.75 -6.4375 24.335938 -4.894531 23.515625 -3.5625 C 22.703125 -2.238281 21.539062 -1.207031 20.03125 -0.46875 C 18.53125 0.257812 16.765625 0.625 14.734375 0.625 C 12.703125 0.625 10.90625 0.289062 9.34375 -0.375 C 7.78125 -1.039062 6.566406 -1.960938 5.703125 -3.140625 C 4.847656 -4.316406 4.421875 -5.671875 4.421875 -7.203125 L 4.421875 -18.109375 C 4.421875 -19.234375 4.15625 -19.992188 3.625 -20.390625 C 3.101562 -20.785156 2.332031 -20.984375 1.3125 -20.984375 L 0.625 -20.984375 L 0.625 -22.03125 L 12.859375 -22.03125 Z M 12.859375 -20.984375 " />
          </g>
        </g>
      </g>
      <g fill="#ffffff" fill-opacity="1">
        <g transform="translate(99.933835, 23.558282)">
          <g>
            <path
              d="M 22.234375 -16.796875 L 21.171875 -16.796875 C 21.066406 -18.035156 20.679688 -18.929688 20.015625 -19.484375 C 19.347656 -20.046875 18.347656 -20.328125 17.015625 -20.328125 L 13.84375 -20.328125 L 13.84375 -4.28125 C 13.84375 -3.394531 13.945312 -2.722656 14.15625 -2.265625 C 14.363281 -1.804688 14.679688 -1.492188 15.109375 -1.328125 C 15.535156 -1.160156 16.128906 -1.066406 16.890625 -1.046875 L 17.640625 -1.046875 L 17.640625 0 L 5.53125 0 L 5.53125 -1.046875 L 6.09375 -1.046875 C 6.851562 -1.046875 7.460938 -1.125 7.921875 -1.28125 C 8.378906 -1.445312 8.726562 -1.765625 8.96875 -2.234375 C 9.207031 -2.710938 9.328125 -3.410156 9.328125 -4.328125 L 9.328125 -20.328125 L 6.609375 -20.328125 C 5.035156 -20.328125 3.921875 -20.050781 3.265625 -19.5 C 2.617188 -18.957031 2.195312 -18.054688 2 -16.796875 L 0.953125 -16.796875 L 1.078125 -22.03125 L 22.09375 -22.03125 Z M 22.234375 -16.796875 " />
          </g>
        </g>
      </g>
      <g fill="#ffffff" fill-opacity="1">
        <g transform="translate(123.235328, 23.558282)">
          <g>
            <path
              d="M 12.96875 -20.984375 L 12.25 -20.984375 C 11.476562 -20.960938 10.878906 -20.867188 10.453125 -20.703125 C 10.035156 -20.535156 9.71875 -20.222656 9.5 -19.765625 C 9.28125 -19.304688 9.171875 -18.628906 9.171875 -17.734375 L 9.171875 -4.28125 C 9.171875 -3.394531 9.28125 -2.722656 9.5 -2.265625 C 9.71875 -1.804688 10.035156 -1.488281 10.453125 -1.3125 C 10.878906 -1.132812 11.453125 -1.046875 12.171875 -1.046875 L 12.96875 -1.046875 L 12.96875 0 L 0.65625 0 L 0.65625 -1.046875 L 1.34375 -1.046875 C 2.195312 -1.066406 2.851562 -1.148438 3.3125 -1.296875 C 3.769531 -1.453125 4.101562 -1.757812 4.3125 -2.21875 C 4.53125 -2.675781 4.640625 -3.363281 4.640625 -4.28125 L 4.640625 -17.734375 C 4.640625 -18.648438 4.53125 -19.335938 4.3125 -19.796875 C 4.101562 -20.253906 3.78125 -20.5625 3.34375 -20.71875 C 2.90625 -20.875 2.289062 -20.960938 1.5 -20.984375 L 0.65625 -20.984375 L 0.65625 -22.03125 L 12.96875 -22.03125 Z M 12.96875 -20.984375 " />
          </g>
        </g>
      </g>
      <g fill="#ffffff" fill-opacity="1">
        <g transform="translate(136.980607, 23.558282)">
          <g>
            <path
              d="M 13.453125 -22.421875 C 15.703125 -22.421875 17.769531 -21.90625 19.65625 -20.875 C 21.539062 -19.851562 23.03125 -18.460938 24.125 -16.703125 C 25.21875 -14.953125 25.765625 -13.019531 25.765625 -10.90625 C 25.765625 -8.78125 25.21875 -6.835938 24.125 -5.078125 C 23.03125 -3.328125 21.539062 -1.9375 19.65625 -0.90625 C 17.769531 0.113281 15.703125 0.625 13.453125 0.625 C 11.203125 0.625 9.140625 0.113281 7.265625 -0.90625 C 5.390625 -1.9375 3.90625 -3.335938 2.8125 -5.109375 C 1.71875 -6.878906 1.171875 -8.8125 1.171875 -10.90625 C 1.171875 -13 1.71875 -14.925781 2.8125 -16.6875 C 3.90625 -18.457031 5.390625 -19.851562 7.265625 -20.875 C 9.140625 -21.90625 11.203125 -22.421875 13.453125 -22.421875 Z M 6.28125 -10.90625 C 6.28125 -7.738281 6.90625 -5.285156 8.15625 -3.546875 C 9.414062 -1.816406 11.179688 -0.953125 13.453125 -0.953125 C 15.742188 -0.953125 17.515625 -1.816406 18.765625 -3.546875 C 20.023438 -5.285156 20.65625 -7.738281 20.65625 -10.90625 C 20.65625 -13.957031 20.046875 -16.378906 18.828125 -18.171875 C 17.617188 -19.960938 15.816406 -20.859375 13.421875 -20.859375 C 10.972656 -20.859375 9.171875 -19.910156 8.015625 -18.015625 C 6.859375 -16.128906 6.28125 -13.757812 6.28125 -10.90625 Z M 6.28125 -10.90625 " />
          </g>
        </g>
      </g>
      <g fill="#ffffff" fill-opacity="1">
        <g transform="translate(164.045682, 23.558282)">
          <g>
            <path
              d="M 22.71875 -7 L 22.71875 -18.0625 C 22.71875 -19.21875 22.457031 -19.992188 21.9375 -20.390625 C 21.425781 -20.785156 20.679688 -20.984375 19.703125 -20.984375 L 18.6875 -20.984375 L 18.6875 -22.03125 L 28.15625 -22.03125 L 28.15625 -20.984375 L 27.203125 -20.984375 C 26.203125 -20.960938 25.476562 -20.734375 25.03125 -20.296875 C 24.582031 -19.859375 24.359375 -19.003906 24.359375 -17.734375 L 24.359375 0.203125 L 23.734375 0.203125 L 6.484375 -17.046875 L 6.484375 -4.28125 C 6.484375 -3.34375 6.601562 -2.644531 6.84375 -2.1875 C 7.082031 -1.726562 7.429688 -1.421875 7.890625 -1.265625 C 8.347656 -1.117188 9.003906 -1.046875 9.859375 -1.046875 L 10.609375 -1.046875 L 10.609375 0 L 0.8125 0 L 0.8125 -1.046875 L 1.9375 -1.046875 C 2.875 -1.046875 3.59375 -1.238281 4.09375 -1.625 C 4.59375 -2.019531 4.84375 -2.8125 4.84375 -4 L 4.84375 -18.65625 C 4.320312 -19.332031 3.710938 -19.875 3.015625 -20.28125 C 2.316406 -20.6875 1.582031 -20.921875 0.8125 -20.984375 L 0.8125 -22.03125 L 7.859375 -22.03125 Z M 22.71875 -7 " />
          </g>
        </g>
      </g>
    </g>
  </g>
  <g fill="#ffffff" fill-opacity="1">
    <g transform="translate(139.902504, 185.069049)">
      <g>
        <path
          d="M 11.796875 -30.90625 C 13.171875 -30.90625 14.359375 -30.765625 15.359375 -30.484375 C 16.359375 -30.203125 17.457031 -29.8125 18.65625 -29.3125 C 19.070312 -29.132812 19.46875 -28.976562 19.84375 -28.84375 C 20.226562 -28.71875 20.550781 -28.65625 20.8125 -28.65625 C 21.289062 -28.65625 21.675781 -28.84375 21.96875 -29.21875 C 22.257812 -29.601562 22.40625 -30.164062 22.40625 -30.90625 L 23.234375 -30.90625 L 23.234375 -21.125 L 22.40625 -21.125 C 22.113281 -22.675781 21.484375 -24.066406 20.515625 -25.296875 C 19.546875 -26.535156 18.34375 -27.492188 16.90625 -28.171875 C 15.46875 -28.847656 13.925781 -29.1875 12.28125 -29.1875 C 10.488281 -29.1875 9.019531 -28.75 7.875 -27.875 C 6.726562 -27.007812 6.15625 -25.9375 6.15625 -24.65625 C 6.15625 -23.6875 6.492188 -22.863281 7.171875 -22.1875 C 7.847656 -21.507812 8.691406 -20.945312 9.703125 -20.5 C 10.710938 -20.0625 12.113281 -19.550781 13.90625 -18.96875 C 15.695312 -18.382812 17.191406 -17.84375 18.390625 -17.34375 C 19.597656 -16.84375 20.65625 -16.226562 21.5625 -15.5 C 22.59375 -14.644531 23.4375 -13.628906 24.09375 -12.453125 C 24.757812 -11.285156 25.09375 -9.96875 25.09375 -8.5 C 25.09375 -6.707031 24.609375 -5.117188 23.640625 -3.734375 C 22.671875 -2.359375 21.3125 -1.289062 19.5625 -0.53125 C 17.820312 0.226562 15.804688 0.609375 13.515625 0.609375 C 12.078125 0.609375 10.863281 0.484375 9.875 0.234375 C 8.894531 -0.00390625 7.890625 -0.332031 6.859375 -0.75 C 5.890625 -1.15625 5.171875 -1.359375 4.703125 -1.359375 C 4.179688 -1.359375 3.726562 -1.195312 3.34375 -0.875 C 2.957031 -0.550781 2.617188 -0.0546875 2.328125 0.609375 L 1.5 0.609375 L 1.5 -10.46875 L 2.328125 -10.46875 C 2.859375 -7.539062 4.113281 -5.21875 6.09375 -3.5 C 8.070312 -1.78125 10.472656 -0.921875 13.296875 -0.921875 C 15.410156 -0.921875 17.082031 -1.351562 18.3125 -2.21875 C 19.539062 -3.082031 20.15625 -4.25 20.15625 -5.71875 C 20.15625 -6.863281 19.796875 -7.832031 19.078125 -8.625 C 18.359375 -9.414062 17.460938 -10.0625 16.390625 -10.5625 C 15.328125 -11.0625 13.882812 -11.617188 12.0625 -12.234375 C 9.800781 -13.023438 7.972656 -13.765625 6.578125 -14.453125 C 5.179688 -15.148438 3.992188 -16.117188 3.015625 -17.359375 C 2.035156 -18.609375 1.546875 -20.1875 1.546875 -22.09375 C 1.546875 -23.769531 1.984375 -25.273438 2.859375 -26.609375 C 3.742188 -27.941406 4.960938 -28.988281 6.515625 -29.75 C 8.066406 -30.519531 9.828125 -30.90625 11.796875 -30.90625 Z M 11.796875 -30.90625 " />
      </g>
    </g>
  </g>
  <g fill="#fcfafaff" fill-opacity="1">
    <g transform="translate(166.487917, 185.069049)">
      <g>
        <path
          d="M 16.234375 -29.453125 C 15.117188 -29.421875 14.28125 -29.332031 13.71875 -29.1875 C 13.164062 -29.039062 12.742188 -28.703125 12.453125 -28.171875 C 12.160156 -27.640625 12.015625 -26.785156 12.015625 -25.609375 L 12.015625 -4.578125 C 12.015625 -3.429688 12.15625 -2.59375 12.4375 -2.0625 C 12.71875 -1.539062 13.132812 -1.207031 13.6875 -1.0625 C 14.25 -0.914062 15.097656 -0.828125 16.234375 -0.796875 L 16.234375 0 L 0.75 0 L 0.75 -0.796875 C 1.863281 -0.796875 2.695312 -0.867188 3.25 -1.015625 C 3.8125 -1.160156 4.238281 -1.503906 4.53125 -2.046875 C 4.820312 -2.585938 4.96875 -3.429688 4.96875 -4.578125 L 4.96875 -25.609375 C 4.96875 -26.753906 4.820312 -27.597656 4.53125 -28.140625 C 4.238281 -28.691406 3.804688 -29.039062 3.234375 -29.1875 C 2.660156 -29.332031 1.832031 -29.421875 0.75 -29.453125 L 0.75 -30.234375 L 16.234375 -30.234375 Z M 16.234375 -29.453125 " />
      </g>
    </g>
  </g>
  <g fill="#ffffff" fill-opacity="1">
    <g transform="translate(183.433916, 185.069049)">
      <g>
        <path
          d="M 21.875 -9.46875 L 31.203125 -30.234375 L 42.953125 -30.234375 L 42.953125 -29.453125 C 41.960938 -29.421875 41.191406 -29.332031 40.640625 -29.1875 C 40.097656 -29.039062 39.6875 -28.71875 39.40625 -28.21875 C 39.132812 -27.71875 39 -26.96875 39 -25.96875 L 39 -4.625 C 39 -3.476562 39.132812 -2.632812 39.40625 -2.09375 C 39.6875 -1.550781 40.09375 -1.207031 40.625 -1.0625 C 41.15625 -0.914062 41.929688 -0.828125 42.953125 -0.796875 L 42.953125 0 L 27.640625 0 L 27.640625 -0.796875 C 28.785156 -0.828125 29.648438 -0.921875 30.234375 -1.078125 C 30.828125 -1.242188 31.257812 -1.585938 31.53125 -2.109375 C 31.8125 -2.640625 31.953125 -3.460938 31.953125 -4.578125 L 31.953125 -27.953125 L 31.875 -27.953125 L 19.359375 0 L 18.75 0 L 6.296875 -27.734375 L 6.203125 -27.734375 L 6.203125 -4.40625 C 6.203125 -3.164062 6.550781 -2.253906 7.25 -1.671875 C 7.957031 -1.085938 9.03125 -0.796875 10.46875 -0.796875 L 10.46875 0 L 0.65625 0 L 0.65625 -0.796875 C 1.976562 -0.796875 2.976562 -1.144531 3.65625 -1.84375 C 4.332031 -2.550781 4.671875 -3.445312 4.671875 -4.53125 L 4.671875 -25.609375 C 4.671875 -26.671875 4.546875 -27.472656 4.296875 -28.015625 C 4.046875 -28.554688 3.640625 -28.921875 3.078125 -29.109375 C 2.523438 -29.304688 1.71875 -29.421875 0.65625 -29.453125 L 0.65625 -30.234375 L 12.5 -30.234375 Z M 21.875 -9.46875 " />
      </g>
    </g>
  </g>
  <g fill="#ffffff" fill-opacity="1">
    <g transform="translate(227.009341, 185.069049)">
      <g>
        <path
          d="M 28.296875 -22.046875 C 28.296875 -20.523438 27.84375 -19.140625 26.9375 -17.890625 C 26.03125 -16.640625 24.6875 -15.648438 22.90625 -14.921875 C 21.132812 -14.191406 19.015625 -13.828125 16.546875 -13.828125 L 12.140625 -13.828125 L 12.140625 -4.578125 C 12.140625 -3.492188 12.28125 -2.6875 12.5625 -2.15625 C 12.84375 -1.625 13.253906 -1.269531 13.796875 -1.09375 C 14.335938 -0.925781 15.125 -0.828125 16.15625 -0.796875 L 16.15625 0 L 0.796875 0 L 0.796875 -0.796875 C 1.910156 -0.828125 2.757812 -0.921875 3.34375 -1.078125 C 3.925781 -1.242188 4.363281 -1.585938 4.65625 -2.109375 C 4.957031 -2.640625 5.109375 -3.460938 5.109375 -4.578125 L 5.109375 -25.921875 C 5.109375 -27.328125 4.753906 -28.265625 4.046875 -28.734375 C 3.347656 -29.210938 2.265625 -29.453125 0.796875 -29.453125 L 0.796875 -30.234375 L 17.125 -30.234375 C 18.9375 -30.234375 20.703125 -29.925781 22.421875 -29.3125 C 24.140625 -28.695312 25.546875 -27.769531 26.640625 -26.53125 C 27.742188 -25.300781 28.296875 -23.804688 28.296875 -22.046875 Z M 20.734375 -21.921875 C 20.734375 -23.796875 20.4375 -25.21875 19.84375 -26.1875 C 19.257812 -27.15625 18.488281 -27.800781 17.53125 -28.125 C 16.582031 -28.445312 15.390625 -28.609375 13.953125 -28.609375 L 12.140625 -28.609375 L 12.140625 -15.453125 L 15.015625 -15.453125 C 16.648438 -15.453125 18.007812 -15.960938 19.09375 -16.984375 C 20.1875 -18.015625 20.734375 -19.660156 20.734375 -21.921875 Z M 20.734375 -21.921875 " />
      </g>
    </g>
  </g>
  <g fill="#ffffff" fill-opacity="1">
    <g transform="translate(256.367737, 185.069049)">
      <g>
        <path
          d="M 17.78125 -29.453125 C 16.28125 -29.421875 15.191406 -29.335938 14.515625 -29.203125 C 13.847656 -29.066406 13.34375 -28.734375 13 -28.203125 C 12.664062 -27.679688 12.5 -26.816406 12.5 -25.609375 L 12.5 -4.046875 C 12.5 -3.191406 12.710938 -2.570312 13.140625 -2.1875 C 13.566406 -1.8125 14.25 -1.625 15.1875 -1.625 L 18.40625 -1.625 C 20.863281 -1.625 22.816406 -2.328125 24.265625 -3.734375 C 25.722656 -5.148438 26.804688 -7.335938 27.515625 -10.296875 L 28.296875 -10.296875 L 27.25 0 L 0.703125 0 L 0.703125 -0.796875 C 1.992188 -0.828125 2.960938 -0.9375 3.609375 -1.125 C 4.253906 -1.3125 4.722656 -1.671875 5.015625 -2.203125 C 5.304688 -2.734375 5.453125 -3.539062 5.453125 -4.625 L 5.453125 -25.609375 C 5.453125 -26.816406 5.285156 -27.679688 4.953125 -28.203125 C 4.617188 -28.734375 4.148438 -29.066406 3.546875 -29.203125 C 2.941406 -29.335938 1.992188 -29.421875 0.703125 -29.453125 L 0.703125 -30.234375 L 17.78125 -30.234375 Z M 17.78125 -29.453125 " />
      </g>
    </g>
  </g>
  <g fill="#ee372b" fill-opacity="1">
    <g transform="translate(285.73062, 185.069049)">
      <g>
        <path
          d="M 16.234375 -29.453125 C 15.117188 -29.421875 14.28125 -29.332031 13.71875 -29.1875 C 13.164062 -29.039062 12.742188 -28.703125 12.453125 -28.171875 C 12.160156 -27.640625 12.015625 -26.785156 12.015625 -25.609375 L 12.015625 -4.578125 C 12.015625 -3.429688 12.15625 -2.59375 12.4375 -2.0625 C 12.71875 -1.539062 13.132812 -1.207031 13.6875 -1.0625 C 14.25 -0.914062 15.097656 -0.828125 16.234375 -0.796875 L 16.234375 0 L 0.75 0 L 0.75 -0.796875 C 1.863281 -0.796875 2.695312 -0.867188 3.25 -1.015625 C 3.8125 -1.160156 4.238281 -1.503906 4.53125 -2.046875 C 4.820312 -2.585938 4.96875 -3.429688 4.96875 -4.578125 L 4.96875 -25.609375 C 4.96875 -26.753906 4.820312 -27.597656 4.53125 -28.140625 C 4.238281 -28.691406 3.804688 -29.039062 3.234375 -29.1875 C 2.660156 -29.332031 1.832031 -29.421875 0.75 -29.453125 L 0.75 -30.234375 L 16.234375 -30.234375 Z M 16.234375 -29.453125 " />
      </g>
    </g>
  </g>
  <g fill="#ee372b" fill-opacity="1">
    <g transform="translate(302.676618, 185.069049)">
      <g>
        <path
          d="M 28.125 -22.3125 L 27.328125 -22.3125 C 27.128906 -24.394531 26.476562 -25.960938 25.375 -27.015625 C 24.269531 -28.078125 23.015625 -28.609375 21.609375 -28.609375 L 18.171875 -28.609375 L 18.171875 -4.75 C 18.171875 -3.664062 18.316406 -2.84375 18.609375 -2.28125 C 18.910156 -1.726562 19.367188 -1.347656 19.984375 -1.140625 C 20.597656 -0.941406 21.460938 -0.828125 22.578125 -0.796875 L 22.578125 0 L 6.734375 0 L 6.734375 -0.796875 C 7.847656 -0.796875 8.707031 -0.875 9.3125 -1.03125 C 9.914062 -1.195312 10.367188 -1.554688 10.671875 -2.109375 C 10.984375 -2.671875 11.140625 -3.523438 11.140625 -4.671875 L 11.140625 -28.609375 L 7.34375 -28.609375 C 6.03125 -28.609375 4.859375 -28.03125 3.828125 -26.875 C 2.796875 -25.71875 2.179688 -24.195312 1.984375 -22.3125 L 1.1875 -22.3125 L 1.1875 -30.234375 L 28.125 -30.234375 Z M 28.125 -22.3125 " />
      </g>
    </g>
  </g>
</svg>