<svg xmlns="http://www.w3.org/2000/svg" xmlns:xlink="http://www.w3.org/1999/xlink" width="2000" zoomAndPan="magnify" viewBox="0 0 1500 364.499989" height="486" preserveAspectRatio="xMidYMid meet" version="1.0"><defs><g/><clipPath id="bd3a56da4e"><path d="M 27 2.554688 L 271.902344 2.554688 L 271.902344 235.484375 L 27 235.484375 Z M 27 2.554688 " clip-rule="nonzero"/></clipPath><clipPath id="7483552dec"><path d="M 245.777344 131 L 490.691406 131 L 490.691406 363.699219 L 245.777344 363.699219 Z M 245.777344 131 " clip-rule="nonzero"/></clipPath><clipPath id="b71689ac22"><rect x="0" width="941" y="0" height="147"/></clipPath><clipPath id="1c5506893f"><rect x="0" width="944" y="0" height="218"/></clipPath></defs><g clip-path="url(#bd3a56da4e)"><path fill="#ffffff" d="M 30.625 126.132812 L 265.855469 45.050781 L 261.84375 72.976562 L 128.917969 119.042969 L 248.980469 164.671875 L 244.964844 192.597656 L 88.679688 132.785156 L 67.84375 139.878906 L 243.261719 207.21875 L 239.25 235.144531 L 27.054688 154.0625 Z M 36.839844 83.585938 L 272.066406 2.554688 L 268.054688 30.480469 L 32.878906 111.511719 Z M 36.839844 83.585938 " fill-opacity="1" fill-rule="nonzero"/></g><g clip-path="url(#7483552dec)"><path fill="#ee372b" d="M 487.050781 240.121094 L 251.820312 321.207031 L 255.832031 293.28125 L 388.757812 247.210938 L 268.695312 201.585938 L 272.710938 173.660156 L 429 233.46875 L 449.832031 226.378906 L 274.414062 159.035156 L 278.425781 131.109375 L 490.625 212.195312 Z M 480.839844 282.671875 L 245.609375 363.699219 L 249.621094 335.773438 L 484.796875 254.742188 Z M 480.839844 282.671875 " fill-opacity="1" fill-rule="nonzero"/></g><g transform="matrix(1, 0, 0, 1, 517, 208)"><g clip-path="url(#b71689ac22)"><g fill="#ffffff" fill-opacity="1"><g transform="translate(0.189634, 103.179011)"><g><path d="M 38.171875 -99.4375 C 41.660156 -99.4375 44.78125 -99.144531 47.53125 -98.5625 C 50.289062 -97.976562 53.269531 -97.203125 56.46875 -96.234375 C 57.914062 -95.753906 59.390625 -95.34375 60.890625 -95 C 62.390625 -94.664062 63.671875 -94.5 64.734375 -94.5 C 66.085938 -94.5 67.203125 -94.882812 68.078125 -95.65625 C 68.953125 -96.425781 69.628906 -97.6875 70.109375 -99.4375 L 74.90625 -99.4375 L 74.90625 -67.640625 L 70.40625 -67.640625 C 67.40625 -75.191406 63.117188 -81.21875 57.546875 -85.71875 C 51.984375 -90.21875 46.15625 -92.46875 40.0625 -92.46875 C 35.707031 -92.46875 32.222656 -91.398438 29.609375 -89.265625 C 26.992188 -87.140625 25.6875 -84.285156 25.6875 -80.703125 C 25.6875 -78.085938 26.460938 -75.789062 28.015625 -73.8125 C 29.566406 -71.832031 31.550781 -70.09375 33.96875 -68.59375 C 36.382812 -67.09375 39.867188 -65.179688 44.421875 -62.859375 C 46.066406 -62.078125 48.535156 -60.816406 51.828125 -59.078125 C 58.398438 -55.597656 63.671875 -52.40625 67.640625 -49.5 C 71.609375 -46.59375 74.800781 -43.128906 77.21875 -39.109375 C 79.644531 -35.097656 80.859375 -30.382812 80.859375 -24.96875 C 80.859375 -19.738281 79.476562 -15.019531 76.71875 -10.8125 C 73.957031 -6.601562 70.179688 -3.285156 65.390625 -0.859375 C 60.597656 1.554688 55.300781 2.765625 49.5 2.765625 C 45.820312 2.765625 42.429688 2.398438 39.328125 1.671875 C 36.234375 0.941406 32.753906 -0.0976562 28.890625 -1.453125 C 24.722656 -3.003906 21.816406 -3.78125 20.171875 -3.78125 C 18.335938 -3.78125 16.671875 -3.195312 15.171875 -2.03125 C 13.671875 -0.875 12.726562 0.671875 12.34375 2.609375 L 7.6875 2.609375 L 7.6875 -31.359375 L 12.34375 -31.359375 C 15.53125 -23.222656 20.125 -16.757812 26.125 -11.96875 C 32.125 -7.1875 38.460938 -4.796875 45.140625 -4.796875 C 49.984375 -4.796875 53.976562 -6.148438 57.125 -8.859375 C 60.269531 -11.566406 61.84375 -15 61.84375 -19.15625 C 61.84375 -22.539062 60.945312 -25.46875 59.15625 -27.9375 C 57.363281 -30.40625 55.015625 -32.582031 52.109375 -34.46875 C 49.203125 -36.363281 45.039062 -38.757812 39.625 -41.65625 C 35.175781 -43.976562 32.566406 -45.382812 31.796875 -45.875 C 23.953125 -50.226562 18.019531 -54.507812 14 -58.71875 C 9.988281 -62.925781 7.984375 -68.269531 7.984375 -74.75 C 7.984375 -79.300781 9.289062 -83.460938 11.90625 -87.234375 C 14.519531 -91.015625 18.125 -93.992188 22.71875 -96.171875 C 27.3125 -98.347656 32.460938 -99.4375 38.171875 -99.4375 Z M 38.171875 -99.4375 "/></g></g></g><g fill="#ffffff" fill-opacity="1"><g transform="translate(86.964897, 103.179011)"><g><path d="M 59.65625 -99.4375 C 69.625 -99.4375 78.789062 -97.160156 87.15625 -92.609375 C 95.53125 -88.054688 102.132812 -81.882812 106.96875 -74.09375 C 111.8125 -66.3125 114.234375 -57.726562 114.234375 -48.34375 C 114.234375 -38.945312 111.8125 -30.351562 106.96875 -22.5625 C 102.132812 -14.78125 95.53125 -8.613281 87.15625 -4.0625 C 78.789062 0.488281 69.625 2.765625 59.65625 2.765625 C 49.6875 2.765625 40.539062 0.488281 32.21875 -4.0625 C 23.894531 -8.613281 17.3125 -14.804688 12.46875 -22.640625 C 7.632812 -30.484375 5.21875 -39.050781 5.21875 -48.34375 C 5.21875 -57.625 7.632812 -66.179688 12.46875 -74.015625 C 17.3125 -81.859375 23.894531 -88.054688 32.21875 -92.609375 C 40.539062 -97.160156 49.6875 -99.4375 59.65625 -99.4375 Z M 27.875 -48.34375 C 27.875 -34.3125 30.65625 -23.445312 36.21875 -15.75 C 41.78125 -8.050781 49.59375 -4.203125 59.65625 -4.203125 C 69.820312 -4.203125 77.6875 -8.050781 83.25 -15.75 C 88.8125 -23.445312 91.59375 -34.3125 91.59375 -48.34375 C 91.59375 -61.882812 88.90625 -72.625 83.53125 -80.5625 C 78.164062 -88.5 70.160156 -92.46875 59.515625 -92.46875 C 48.671875 -92.46875 40.6875 -88.28125 35.5625 -79.90625 C 30.4375 -71.539062 27.875 -61.019531 27.875 -48.34375 Z M 27.875 -48.34375 "/></g></g></g><g fill="#ffffff" fill-opacity="1"><g transform="translate(206.970141, 103.179011)"><g><path d="M 57.046875 -93.046875 L 54.28125 -93.046875 C 50.601562 -92.953125 47.773438 -92.585938 45.796875 -91.953125 C 43.816406 -91.328125 42.316406 -89.972656 41.296875 -87.890625 C 40.273438 -85.804688 39.765625 -82.734375 39.765625 -78.671875 L 39.765625 -16.84375 C 39.765625 -14.132812 39.957031 -12.171875 40.34375 -10.953125 C 40.738281 -9.742188 41.488281 -8.921875 42.59375 -8.484375 C 43.707031 -8.054688 45.476562 -7.84375 47.90625 -7.84375 L 67.359375 -7.84375 C 72.191406 -7.84375 76.15625 -8.375 79.25 -9.4375 C 82.351562 -10.5 85.113281 -12.335938 87.53125 -14.953125 C 89.945312 -17.566406 92.507812 -21.390625 95.21875 -26.421875 L 100.015625 -26.421875 L 91.15625 0 L 2.609375 0 L 2.609375 -4.640625 L 6.390625 -4.640625 C 9.679688 -4.742188 12.269531 -5.15625 14.15625 -5.875 C 16.039062 -6.601562 17.441406 -7.984375 18.359375 -10.015625 C 19.273438 -12.046875 19.734375 -15 19.734375 -18.875 L 19.734375 -78.671875 C 19.734375 -82.546875 19.273438 -85.5 18.359375 -87.53125 C 17.441406 -89.5625 15.988281 -90.960938 14 -91.734375 C 12.019531 -92.515625 9.289062 -92.953125 5.8125 -93.046875 L 3.484375 -93.046875 L 3.484375 -97.6875 L 57.046875 -97.6875 Z M 57.046875 -93.046875 "/></g></g></g><g fill="#ffffff" fill-opacity="1"><g transform="translate(310.287844, 103.179011)"><g><path d="M 57.046875 -93.046875 L 53.265625 -93.046875 C 48.335938 -93.046875 44.832031 -92.078125 42.75 -90.140625 C 40.664062 -88.203125 39.625 -84.378906 39.625 -78.671875 L 39.625 -34.109375 C 39.625 -28.691406 40.859375 -23.925781 43.328125 -19.8125 C 45.796875 -15.695312 49.28125 -12.476562 53.78125 -10.15625 C 58.28125 -7.832031 63.53125 -6.671875 69.53125 -6.671875 C 76.007812 -6.671875 81.765625 -7.953125 86.796875 -10.515625 C 91.828125 -13.085938 95.695312 -16.570312 98.40625 -20.96875 C 101.125 -25.375 102.484375 -30.238281 102.484375 -35.5625 L 102.484375 -80.125 C 102.484375 -85.445312 101.269531 -88.929688 98.84375 -90.578125 C 96.425781 -92.222656 92.992188 -93.046875 88.546875 -93.046875 L 86.21875 -93.046875 L 86.21875 -97.6875 L 125.703125 -97.6875 L 125.703125 -93.046875 L 122.21875 -93.046875 C 117.957031 -93.046875 114.8125 -92.003906 112.78125 -89.921875 C 110.75 -87.835938 109.734375 -84.085938 109.734375 -78.671875 L 109.734375 -36.28125 C 109.734375 -28.539062 107.914062 -21.71875 104.28125 -15.8125 C 100.65625 -9.914062 95.503906 -5.34375 88.828125 -2.09375 C 82.148438 1.144531 74.3125 2.765625 65.3125 2.765625 C 56.320312 2.765625 48.363281 1.289062 41.4375 -1.65625 C 34.519531 -4.613281 29.148438 -8.703125 25.328125 -13.921875 C 21.503906 -19.148438 19.59375 -25.15625 19.59375 -31.9375 L 19.59375 -80.265625 C 19.59375 -85.296875 18.429688 -88.679688 16.109375 -90.421875 C 13.785156 -92.171875 10.351562 -93.046875 5.8125 -93.046875 L 2.765625 -93.046875 L 2.765625 -97.6875 L 57.046875 -97.6875 Z M 57.046875 -93.046875 "/></g></g></g><g fill="#ffffff" fill-opacity="1"><g transform="translate(439.289805, 103.179011)"><g><path d="M 98.5625 -74.46875 L 93.921875 -74.46875 C 93.429688 -79.976562 91.707031 -83.96875 88.75 -86.4375 C 85.800781 -88.90625 81.378906 -90.140625 75.484375 -90.140625 L 61.40625 -90.140625 L 61.40625 -19.015625 C 61.40625 -15.046875 61.863281 -12.046875 62.78125 -10.015625 C 63.695312 -7.984375 65.097656 -6.601562 66.984375 -5.875 C 68.867188 -5.15625 71.507812 -4.742188 74.90625 -4.640625 L 78.234375 -4.640625 L 78.234375 0 L 24.53125 0 L 24.53125 -4.640625 L 27 -4.640625 C 30.382812 -4.640625 33.09375 -5.003906 35.125 -5.734375 C 37.15625 -6.460938 38.703125 -7.863281 39.765625 -9.9375 C 40.835938 -12.019531 41.375 -15.09375 41.375 -19.15625 L 41.375 -90.140625 L 29.328125 -90.140625 C 22.359375 -90.140625 17.421875 -88.929688 14.515625 -86.515625 C 11.609375 -84.097656 9.722656 -80.082031 8.859375 -74.46875 L 4.203125 -74.46875 L 4.796875 -97.6875 L 97.984375 -97.6875 Z M 98.5625 -74.46875 "/></g></g></g><g fill="#ffffff" fill-opacity="1"><g transform="translate(542.607508, 103.179011)"><g><path d="M 57.484375 -93.046875 L 54.28125 -93.046875 C 50.894531 -92.953125 48.257812 -92.539062 46.375 -91.8125 C 44.488281 -91.082031 43.0625 -89.703125 42.09375 -87.671875 C 41.125 -85.640625 40.640625 -82.640625 40.640625 -78.671875 L 40.640625 -19.015625 C 40.640625 -15.046875 41.125 -12.046875 42.09375 -10.015625 C 43.0625 -7.984375 44.488281 -6.578125 46.375 -5.796875 C 48.257812 -5.023438 50.800781 -4.640625 54 -4.640625 L 57.484375 -4.640625 L 57.484375 0 L 2.90625 0 L 2.90625 -4.640625 L 5.953125 -4.640625 C 9.722656 -4.742188 12.625 -5.132812 14.65625 -5.8125 C 16.6875 -6.488281 18.1875 -7.84375 19.15625 -9.875 C 20.125 -11.90625 20.609375 -14.953125 20.609375 -19.015625 L 20.609375 -78.671875 C 20.609375 -82.734375 20.125 -85.78125 19.15625 -87.8125 C 18.1875 -89.851562 16.734375 -91.210938 14.796875 -91.890625 C 12.867188 -92.566406 10.160156 -92.953125 6.671875 -93.046875 L 2.90625 -93.046875 L 2.90625 -97.6875 L 57.484375 -97.6875 Z M 57.484375 -93.046875 "/></g></g></g><g fill="#ffffff" fill-opacity="1"><g transform="translate(603.553414, 103.179011)"><g><path d="M 59.65625 -99.4375 C 69.625 -99.4375 78.789062 -97.160156 87.15625 -92.609375 C 95.53125 -88.054688 102.132812 -81.882812 106.96875 -74.09375 C 111.8125 -66.3125 114.234375 -57.726562 114.234375 -48.34375 C 114.234375 -38.945312 111.8125 -30.351562 106.96875 -22.5625 C 102.132812 -14.78125 95.53125 -8.613281 87.15625 -4.0625 C 78.789062 0.488281 69.625 2.765625 59.65625 2.765625 C 49.6875 2.765625 40.539062 0.488281 32.21875 -4.0625 C 23.894531 -8.613281 17.3125 -14.804688 12.46875 -22.640625 C 7.632812 -30.484375 5.21875 -39.050781 5.21875 -48.34375 C 5.21875 -57.625 7.632812 -66.179688 12.46875 -74.015625 C 17.3125 -81.859375 23.894531 -88.054688 32.21875 -92.609375 C 40.539062 -97.160156 49.6875 -99.4375 59.65625 -99.4375 Z M 27.875 -48.34375 C 27.875 -34.3125 30.65625 -23.445312 36.21875 -15.75 C 41.78125 -8.050781 49.59375 -4.203125 59.65625 -4.203125 C 69.820312 -4.203125 77.6875 -8.050781 83.25 -15.75 C 88.8125 -23.445312 91.59375 -34.3125 91.59375 -48.34375 C 91.59375 -61.882812 88.90625 -72.625 83.53125 -80.5625 C 78.164062 -88.5 70.160156 -92.46875 59.515625 -92.46875 C 48.671875 -92.46875 40.6875 -88.28125 35.5625 -79.90625 C 30.4375 -71.539062 27.875 -61.019531 27.875 -48.34375 Z M 27.875 -48.34375 "/></g></g></g><g fill="#ffffff" fill-opacity="1"><g transform="translate(723.558658, 103.179011)"><g><path d="M 100.734375 -31.0625 L 100.734375 -80.125 C 100.734375 -85.25 99.597656 -88.679688 97.328125 -90.421875 C 95.054688 -92.171875 91.742188 -93.046875 87.390625 -93.046875 L 82.890625 -93.046875 L 82.890625 -97.6875 L 124.828125 -97.6875 L 124.828125 -93.046875 L 120.625 -93.046875 C 116.175781 -92.953125 112.957031 -91.9375 110.96875 -90 C 108.988281 -88.0625 108 -84.285156 108 -78.671875 L 108 0.875 L 105.234375 0.875 L 28.734375 -75.625 L 28.734375 -19.015625 C 28.734375 -14.859375 29.265625 -11.757812 30.328125 -9.71875 C 31.398438 -7.6875 32.953125 -6.332031 34.984375 -5.65625 C 37.015625 -4.976562 39.914062 -4.640625 43.6875 -4.640625 L 47.03125 -4.640625 L 47.03125 0 L 3.625 0 L 3.625 -4.640625 L 8.5625 -4.640625 C 12.726562 -4.640625 15.921875 -5.507812 18.140625 -7.25 C 20.367188 -9 21.484375 -12.484375 21.484375 -17.703125 L 21.484375 -82.734375 C 19.160156 -85.734375 16.445312 -88.128906 13.34375 -89.921875 C 10.25 -91.710938 7.007812 -92.753906 3.625 -93.046875 L 3.625 -97.6875 L 34.84375 -97.6875 Z M 100.734375 -31.0625 "/></g></g></g><g fill="#ffffff" fill-opacity="1"><g transform="translate(852.560619, 103.179011)"><g><path d="M 38.171875 -99.4375 C 41.660156 -99.4375 44.78125 -99.144531 47.53125 -98.5625 C 50.289062 -97.976562 53.269531 -97.203125 56.46875 -96.234375 C 57.914062 -95.753906 59.390625 -95.34375 60.890625 -95 C 62.390625 -94.664062 63.671875 -94.5 64.734375 -94.5 C 66.085938 -94.5 67.203125 -94.882812 68.078125 -95.65625 C 68.953125 -96.425781 69.628906 -97.6875 70.109375 -99.4375 L 74.90625 -99.4375 L 74.90625 -67.640625 L 70.40625 -67.640625 C 67.40625 -75.191406 63.117188 -81.21875 57.546875 -85.71875 C 51.984375 -90.21875 46.15625 -92.46875 40.0625 -92.46875 C 35.707031 -92.46875 32.222656 -91.398438 29.609375 -89.265625 C 26.992188 -87.140625 25.6875 -84.285156 25.6875 -80.703125 C 25.6875 -78.085938 26.460938 -75.789062 28.015625 -73.8125 C 29.566406 -71.832031 31.550781 -70.09375 33.96875 -68.59375 C 36.382812 -67.09375 39.867188 -65.179688 44.421875 -62.859375 C 46.066406 -62.078125 48.535156 -60.816406 51.828125 -59.078125 C 58.398438 -55.597656 63.671875 -52.40625 67.640625 -49.5 C 71.609375 -46.59375 74.800781 -43.128906 77.21875 -39.109375 C 79.644531 -35.097656 80.859375 -30.382812 80.859375 -24.96875 C 80.859375 -19.738281 79.476562 -15.019531 76.71875 -10.8125 C 73.957031 -6.601562 70.179688 -3.285156 65.390625 -0.859375 C 60.597656 1.554688 55.300781 2.765625 49.5 2.765625 C 45.820312 2.765625 42.429688 2.398438 39.328125 1.671875 C 36.234375 0.941406 32.753906 -0.0976562 28.890625 -1.453125 C 24.722656 -3.003906 21.816406 -3.78125 20.171875 -3.78125 C 18.335938 -3.78125 16.671875 -3.195312 15.171875 -2.03125 C 13.671875 -0.875 12.726562 0.671875 12.34375 2.609375 L 7.6875 2.609375 L 7.6875 -31.359375 L 12.34375 -31.359375 C 15.53125 -23.222656 20.125 -16.757812 26.125 -11.96875 C 32.125 -7.1875 38.460938 -4.796875 45.140625 -4.796875 C 49.984375 -4.796875 53.976562 -6.148438 57.125 -8.859375 C 60.269531 -11.566406 61.84375 -15 61.84375 -19.15625 C 61.84375 -22.539062 60.945312 -25.46875 59.15625 -27.9375 C 57.363281 -30.40625 55.015625 -32.582031 52.109375 -34.46875 C 49.203125 -36.363281 45.039062 -38.757812 39.625 -41.65625 C 35.175781 -43.976562 32.566406 -45.382812 31.796875 -45.875 C 23.953125 -50.226562 18.019531 -54.507812 14 -58.71875 C 9.988281 -62.925781 7.984375 -68.269531 7.984375 -74.75 C 7.984375 -79.300781 9.289062 -83.460938 11.90625 -87.234375 C 14.519531 -91.015625 18.125 -93.992188 22.71875 -96.171875 C 27.3125 -98.347656 32.460938 -99.4375 38.171875 -99.4375 Z M 38.171875 -99.4375 "/></g></g></g></g></g><g transform="matrix(1, 0, 0, 1, 517, 29)"><g clip-path="url(#1c5506893f)"><g fill="#ffffff" fill-opacity="1"><g transform="translate(0.189634, 154.783433)"><g><path d="M 57.703125 -151.140625 C 64.441406 -151.140625 70.25 -150.457031 75.125 -149.09375 C 80.007812 -147.726562 85.394531 -145.828125 91.28125 -143.390625 C 93.289062 -142.523438 95.226562 -141.769531 97.09375 -141.125 C 98.957031 -140.476562 100.535156 -140.15625 101.828125 -140.15625 C 104.128906 -140.15625 106 -141.085938 107.4375 -142.953125 C 108.875 -144.816406 109.59375 -147.546875 109.59375 -151.140625 L 113.671875 -151.140625 L 113.671875 -103.34375 L 109.59375 -103.34375 C 108.15625 -110.945312 105.066406 -117.765625 100.328125 -123.796875 C 95.585938 -129.828125 89.703125 -134.488281 82.671875 -137.78125 C 75.640625 -141.082031 68.101562 -142.734375 60.0625 -142.734375 C 51.3125 -142.734375 44.132812 -140.617188 38.53125 -136.390625 C 32.9375 -132.160156 30.140625 -126.882812 30.140625 -120.5625 C 30.140625 -115.832031 31.789062 -111.816406 35.09375 -108.515625 C 38.394531 -105.210938 42.519531 -102.484375 47.46875 -100.328125 C 52.425781 -98.171875 59.28125 -95.660156 68.03125 -92.796875 C 76.789062 -89.921875 84.113281 -87.265625 90 -84.828125 C 95.882812 -82.390625 101.050781 -79.375 105.5 -75.78125 C 110.519531 -71.625 114.644531 -66.671875 117.875 -60.921875 C 121.101562 -55.179688 122.71875 -48.722656 122.71875 -41.546875 C 122.71875 -32.796875 120.347656 -25.046875 115.609375 -18.296875 C 110.878906 -11.554688 104.242188 -6.316406 95.703125 -2.578125 C 87.160156 1.148438 77.289062 3.015625 66.09375 3.015625 C 59.0625 3.015625 53.140625 2.40625 48.328125 1.1875 C 43.523438 -0.03125 38.613281 -1.644531 33.59375 -3.65625 C 28.851562 -5.664062 25.332031 -6.671875 23.03125 -6.671875 C 20.445312 -6.671875 18.222656 -5.878906 16.359375 -4.296875 C 14.492188 -2.722656 12.84375 -0.285156 11.40625 3.015625 L 7.3125 3.015625 L 7.3125 -51.234375 L 11.40625 -51.234375 C 13.988281 -36.890625 20.125 -25.515625 29.8125 -17.109375 C 39.5 -8.710938 51.234375 -4.515625 65.015625 -4.515625 C 75.347656 -4.515625 83.53125 -6.628906 89.5625 -10.859375 C 95.59375 -15.097656 98.609375 -20.804688 98.609375 -27.984375 C 98.609375 -33.585938 96.847656 -38.328125 93.328125 -42.203125 C 89.816406 -46.078125 85.441406 -49.234375 80.203125 -51.671875 C 74.960938 -54.109375 67.890625 -56.835938 58.984375 -59.859375 C 47.929688 -63.734375 38.992188 -67.351562 32.171875 -70.71875 C 25.359375 -74.09375 19.546875 -78.828125 14.734375 -84.921875 C 9.929688 -91.023438 7.53125 -98.742188 7.53125 -108.078125 C 7.53125 -116.253906 9.679688 -123.609375 13.984375 -130.140625 C 18.296875 -136.671875 24.253906 -141.800781 31.859375 -145.53125 C 39.472656 -149.269531 48.085938 -151.140625 57.703125 -151.140625 Z M 57.703125 -151.140625 "/></g></g></g><g fill="#ffffff" fill-opacity="1"><g transform="translate(130.225035, 154.783433)"><g><path d="M 79.4375 -144.03125 C 73.988281 -143.882812 69.898438 -143.453125 67.171875 -142.734375 C 64.441406 -142.023438 62.359375 -140.378906 60.921875 -137.796875 C 59.492188 -135.210938 58.78125 -131.046875 58.78125 -125.296875 L 58.78125 -22.390625 C 58.78125 -16.796875 59.457031 -12.707031 60.8125 -10.125 C 62.175781 -7.539062 64.222656 -5.890625 66.953125 -5.171875 C 69.679688 -4.453125 73.84375 -4.019531 79.4375 -3.875 L 79.4375 0 L 3.65625 0 L 3.65625 -3.875 C 9.113281 -3.875 13.203125 -4.234375 15.921875 -4.953125 C 18.648438 -5.671875 20.734375 -7.359375 22.171875 -10.015625 C 23.609375 -12.671875 24.328125 -16.796875 24.328125 -22.390625 L 24.328125 -125.296875 C 24.328125 -130.898438 23.609375 -135.03125 22.171875 -137.6875 C 20.734375 -140.34375 18.613281 -142.023438 15.8125 -142.734375 C 13.019531 -143.453125 8.96875 -143.882812 3.65625 -144.03125 L 3.65625 -147.90625 L 79.4375 -147.90625 Z M 79.4375 -144.03125 "/></g></g></g><g fill="#ffffff" fill-opacity="1"><g transform="translate(213.11183, 154.783433)"><g><path d="M 107 -46.28125 L 152.640625 -147.90625 L 210.125 -147.90625 L 210.125 -144.03125 C 205.25 -143.882812 201.484375 -143.453125 198.828125 -142.734375 C 196.171875 -142.023438 194.160156 -140.445312 192.796875 -138 C 191.429688 -135.5625 190.75 -131.90625 190.75 -127.03125 L 190.75 -22.609375 C 190.75 -17.003906 191.429688 -12.875 192.796875 -10.21875 C 194.160156 -7.570312 196.132812 -5.890625 198.71875 -5.171875 C 201.300781 -4.453125 205.101562 -4.019531 210.125 -3.875 L 210.125 0 L 135.203125 0 L 135.203125 -3.875 C 140.804688 -4.019531 145.039062 -4.484375 147.90625 -5.265625 C 150.78125 -6.054688 152.898438 -7.742188 154.265625 -10.328125 C 155.628906 -12.910156 156.3125 -16.929688 156.3125 -22.390625 L 156.3125 -136.71875 L 155.875 -136.71875 L 94.734375 0 L 91.71875 0 L 30.78125 -135.640625 L 30.359375 -135.640625 L 30.359375 -21.53125 C 30.359375 -15.5 32.078125 -11.046875 35.515625 -8.171875 C 38.960938 -5.304688 44.203125 -3.875 51.234375 -3.875 L 51.234375 0 L 3.234375 0 L 3.234375 -3.875 C 9.691406 -3.875 14.570312 -5.59375 17.875 -9.03125 C 21.175781 -12.476562 22.828125 -16.859375 22.828125 -22.171875 L 22.828125 -125.296875 C 22.828125 -130.460938 22.210938 -134.375 20.984375 -137.03125 C 19.765625 -139.6875 17.789062 -141.476562 15.0625 -142.40625 C 12.34375 -143.34375 8.398438 -143.882812 3.234375 -144.03125 L 3.234375 -147.90625 L 61.140625 -147.90625 Z M 107 -46.28125 "/></g></g></g><g fill="#ffffff" fill-opacity="1"><g transform="translate(426.249308, 154.783433)"><g><path d="M 138.4375 -107.859375 C 138.4375 -100.398438 136.210938 -93.617188 131.765625 -87.515625 C 127.316406 -81.421875 120.75 -76.578125 112.0625 -72.984375 C 103.375 -69.398438 93.003906 -67.609375 80.953125 -67.609375 L 59.421875 -67.609375 L 59.421875 -22.390625 C 59.421875 -17.078125 60.101562 -13.128906 61.46875 -10.546875 C 62.832031 -7.960938 64.84375 -6.238281 67.5 -5.375 C 70.15625 -4.519531 73.992188 -4.019531 79.015625 -3.875 L 79.015625 0 L 3.875 0 L 3.875 -3.875 C 9.332031 -4.019531 13.492188 -4.484375 16.359375 -5.265625 C 19.234375 -6.054688 21.382812 -7.742188 22.8125 -10.328125 C 24.25 -12.910156 24.96875 -16.929688 24.96875 -22.390625 L 24.96875 -126.8125 C 24.96875 -133.695312 23.242188 -138.285156 19.796875 -140.578125 C 16.359375 -142.878906 11.050781 -144.03125 3.875 -144.03125 L 3.875 -147.90625 L 83.75 -147.90625 C 92.644531 -147.90625 101.289062 -146.394531 109.6875 -143.375 C 118.082031 -140.363281 124.972656 -135.84375 130.359375 -129.8125 C 135.742188 -123.789062 138.4375 -116.472656 138.4375 -107.859375 Z M 101.40625 -107.21875 C 101.40625 -116.40625 99.96875 -123.363281 97.09375 -128.09375 C 94.226562 -132.832031 90.460938 -135.988281 85.796875 -137.5625 C 81.128906 -139.144531 75.28125 -139.9375 68.25 -139.9375 L 59.421875 -139.9375 L 59.421875 -75.5625 L 73.421875 -75.5625 C 81.453125 -75.5625 88.125 -78.070312 93.4375 -83.09375 C 98.75 -88.125 101.40625 -96.164062 101.40625 -107.21875 Z M 101.40625 -107.21875 "/></g></g></g><g fill="#ffffff" fill-opacity="1"><g transform="translate(569.84801, 154.783433)"><g><path d="M 86.984375 -144.03125 C 79.660156 -143.882812 74.347656 -143.488281 71.046875 -142.84375 C 67.742188 -142.195312 65.265625 -140.582031 63.609375 -138 C 61.960938 -135.414062 61.140625 -131.179688 61.140625 -125.296875 L 61.140625 -19.8125 C 61.140625 -15.644531 62.179688 -12.628906 64.265625 -10.765625 C 66.347656 -8.898438 69.6875 -7.96875 74.28125 -7.96875 L 90 -7.96875 C 102.050781 -7.96875 111.628906 -11.410156 118.734375 -18.296875 C 125.835938 -25.191406 131.113281 -35.882812 134.5625 -50.375 L 138.4375 -50.375 L 133.265625 0 L 3.4375 0 L 3.4375 -3.875 C 9.757812 -4.019531 14.5 -4.554688 17.65625 -5.484375 C 20.8125 -6.421875 23.109375 -8.179688 24.546875 -10.765625 C 25.984375 -13.347656 26.703125 -17.296875 26.703125 -22.609375 L 26.703125 -125.296875 C 26.703125 -131.179688 25.875 -135.414062 24.21875 -138 C 22.570312 -140.582031 20.273438 -142.195312 17.328125 -142.84375 C 14.390625 -143.488281 9.757812 -143.882812 3.4375 -144.03125 L 3.4375 -147.90625 L 86.984375 -147.90625 Z M 86.984375 -144.03125 "/></g></g></g><g fill="#ee372b" fill-opacity="1"><g transform="translate(713.468653, 154.783433)"><g><path d="M 79.4375 -144.03125 C 73.988281 -143.882812 69.898438 -143.453125 67.171875 -142.734375 C 64.441406 -142.023438 62.359375 -140.378906 60.921875 -137.796875 C 59.492188 -135.210938 58.78125 -131.046875 58.78125 -125.296875 L 58.78125 -22.390625 C 58.78125 -16.796875 59.457031 -12.707031 60.8125 -10.125 C 62.175781 -7.539062 64.222656 -5.890625 66.953125 -5.171875 C 69.679688 -4.453125 73.84375 -4.019531 79.4375 -3.875 L 79.4375 0 L 3.65625 0 L 3.65625 -3.875 C 9.113281 -3.875 13.203125 -4.234375 15.921875 -4.953125 C 18.648438 -5.671875 20.734375 -7.359375 22.171875 -10.015625 C 23.609375 -12.671875 24.328125 -16.796875 24.328125 -22.390625 L 24.328125 -125.296875 C 24.328125 -130.898438 23.609375 -135.03125 22.171875 -137.6875 C 20.734375 -140.34375 18.613281 -142.023438 15.8125 -142.734375 C 13.019531 -143.453125 8.96875 -143.882812 3.65625 -144.03125 L 3.65625 -147.90625 L 79.4375 -147.90625 Z M 79.4375 -144.03125 "/></g></g></g><g fill="#ee372b" fill-opacity="1"><g transform="translate(796.355448, 154.783433)"><g><path d="M 137.578125 -109.15625 L 133.703125 -109.15625 C 132.691406 -119.34375 129.492188 -127.019531 124.109375 -132.1875 C 118.734375 -137.351562 112.597656 -139.9375 105.703125 -139.9375 L 88.921875 -139.9375 L 88.921875 -23.25 C 88.921875 -17.9375 89.632812 -13.914062 91.0625 -11.1875 C 92.5 -8.46875 94.722656 -6.601562 97.734375 -5.59375 C 100.753906 -4.59375 104.992188 -4.019531 110.453125 -3.875 L 110.453125 0 L 32.9375 0 L 32.9375 -3.875 C 38.394531 -3.875 42.59375 -4.269531 45.53125 -5.0625 C 48.476562 -5.851562 50.703125 -7.609375 52.203125 -10.328125 C 53.710938 -13.054688 54.46875 -17.222656 54.46875 -22.828125 L 54.46875 -139.9375 L 35.953125 -139.9375 C 29.492188 -139.9375 23.753906 -137.101562 18.734375 -131.4375 C 13.710938 -125.769531 10.695312 -118.34375 9.6875 -109.15625 L 5.8125 -109.15625 L 5.8125 -147.90625 L 137.578125 -147.90625 Z M 137.578125 -109.15625 "/></g></g></g></g></g></svg>