<?xml version="1.0" encoding="UTF-8"?>
<svg version="1.1" xmlns="http://www.w3.org/2000/svg" width="512" height="512">
<path d="M0 0 C1.90731659 -0.00461347 3.81462963 -0.01096938 5.72193527 -0.01890898 C10.94347026 -0.03556401 16.16471177 -0.02737326 21.38624763 -0.0149641 C27.0250558 -0.0059003 32.6638141 -0.01988995 38.3026123 -0.03088379 C49.34127289 -0.04865935 60.37982462 -0.04483328 71.41848946 -0.03323323 C80.39077777 -0.02419541 89.36303559 -0.02297642 98.33532715 -0.02732849 C100.25165298 -0.02824789 100.25165298 -0.02824789 102.20669246 -0.02918586 C104.80210655 -0.03046478 107.39752063 -0.03176163 109.9929347 -0.03307623 C133.63004589 -0.04415422 157.26708704 -0.03267082 180.9041869 -0.01170584 C202.46903398 0.00727573 224.03378656 0.00557719 245.59863281 -0.0135498 C269.84280342 -0.0349815 294.08690717 -0.0433806 318.33108902 -0.03110075 C320.916893 -0.02982657 323.50269698 -0.02856909 326.08850098 -0.02732849 C327.36072722 -0.02671139 328.63295347 -0.02609429 329.94373202 -0.02545848 C338.90402925 -0.02200648 347.86429293 -0.02783073 356.82458496 -0.0372467 C367.74592856 -0.04847131 378.66715718 -0.0454168 389.58848763 -0.02412373 C395.15947421 -0.01361967 400.73026916 -0.0094807 406.30125427 -0.02272034 C411.40375778 -0.03466311 416.5058925 -0.02805033 421.60836267 -0.00681013 C423.45141693 -0.0023521 425.29450251 -0.00459232 427.13753653 -0.01431328 C439.47578174 -0.07438461 451.01961062 0.24747857 460.43876719 9.35995865 C467.57260854 18.00183695 469.08929435 26.71856451 468.97381592 37.62609863 C468.98074478 39.01385082 468.99028441 40.40159195 469.00217938 41.78931046 C469.02704551 45.57026499 469.01493138 49.35030176 468.99626207 53.13125801 C468.98261733 57.22135514 469.00367482 61.31130073 469.0201416 65.40136719 C469.04675339 73.40095028 469.04108922 81.40019467 469.02366576 89.39979076 C469.01008851 95.90400651 469.00828935 102.40812765 469.01480865 108.91235352 C469.01572805 109.83978434 469.01664745 110.76721516 469.01759471 111.72274995 C469.01951316 113.60709479 469.02145844 115.49143961 469.02343026 117.3757844 C469.0405196 135.02512999 469.02089892 152.67428828 468.98862806 170.32360315 C468.96182326 185.45154697 468.96647997 200.57921449 468.99414062 215.70715332 C469.02628504 233.29542968 469.03887183 250.88354208 469.02046704 268.47184372 C469.01855585 270.34906766 469.01666962 272.22629163 469.01480865 274.10351562 C469.013883 275.02702828 469.01295735 275.95054093 469.01200365 276.90203881 C469.00683367 283.39477506 469.01554455 289.88740688 469.02968597 296.38012695 C469.04655301 304.29792581 469.04187875 312.215368 469.01000151 320.13312626 C468.99428493 324.16922688 468.98796731 328.20473389 469.00789642 332.24082947 C469.02589588 335.94223798 469.01575724 339.64250786 468.98403111 343.34381437 C468.9742502 345.30279043 468.99363565 347.26184676 469.01437449 349.22073746 C468.89261604 358.45710705 466.69389865 366.45617884 460.43681407 373.5086937 C453.23735362 380.25519369 445.17943273 382.66182203 435.53522396 382.64215565 C434.36320127 382.64568399 434.36320127 382.64568399 433.16750136 382.64928362 C430.53352363 382.65597248 427.89959525 382.65551543 425.26560974 382.65510559 C423.36433861 382.65840429 421.46306817 382.66212987 419.56179863 382.66624707 C414.32454463 382.67627456 409.08730208 382.67998507 403.85003984 382.68263638 C398.20635196 382.68653722 392.56267317 382.69611572 386.91899109 382.70484924 C373.28311281 382.72462001 359.64723379 382.73468069 346.01134476 382.74357703 C339.59177657 382.74795898 333.17220921 382.75332603 326.75264168 382.7585659 C305.41555008 382.77557888 284.07845969 382.79009822 262.74136257 382.79731464 C261.36143456 382.7977894 259.98150655 382.79826529 258.60157854 382.79874231 C257.91726142 382.79897868 257.23294431 382.79921506 256.52789031 382.7994586 C253.06082987 382.80065979 249.59376942 382.80187524 246.12670898 382.80310059 C245.43866155 382.80334074 244.75061413 382.80358089 244.04171677 382.80382831 C221.73747511 382.81171987 199.43328665 382.83514855 177.12906822 382.86765653 C153.54518442 382.9019668 129.96134319 382.92166578 106.37743145 382.92495888 C93.52265382 382.92712487 80.66795438 382.93588656 67.8132 382.96142006 C56.86608492 382.98311401 45.91906702 382.99118387 34.97193288 382.98145328 C29.38680646 382.97690482 23.8018806 382.97882674 18.21678162 382.99821472 C13.10106531 383.01581987 7.98569627 383.01486997 2.86997641 382.99931743 C1.02199441 382.99693736 -0.82601147 383.00128559 -2.67395694 383.01314608 C-15.02966494 383.08751792 -26.58050915 382.78316663 -36.01493907 373.65591049 C-43.14878041 365.01403219 -44.66546623 356.29730463 -44.54998779 345.38977051 C-44.55691666 344.00201833 -44.56645629 342.61427719 -44.57835126 341.22655869 C-44.60321738 337.44560415 -44.59110326 333.66556738 -44.57243395 329.88461113 C-44.5587892 325.794514 -44.57984669 321.70456841 -44.59631348 317.61450195 C-44.62292527 309.61491886 -44.6172611 301.61567447 -44.59983763 293.61607838 C-44.58626039 287.11186263 -44.58446123 280.60774149 -44.59098053 274.10351562 C-44.59189993 273.1760848 -44.59281933 272.24865398 -44.59376658 271.29311919 C-44.59568503 269.40877435 -44.59763031 267.52442953 -44.59960213 265.64008474 C-44.61669148 247.99073915 -44.59707079 230.34158086 -44.56479993 212.69226599 C-44.53799514 197.56432217 -44.54265185 182.43665465 -44.5703125 167.30871582 C-44.60245692 149.72043946 -44.61504371 132.13232706 -44.59663892 114.54402542 C-44.59472772 112.66680148 -44.59284149 110.78957751 -44.59098053 108.91235352 C-44.59005488 107.98884086 -44.58912922 107.06532821 -44.58817552 106.11383033 C-44.58300555 99.62109408 -44.59171642 93.12846226 -44.60585785 86.63574219 C-44.62272488 78.71794333 -44.61805063 70.80050114 -44.58617339 62.88274288 C-44.57045681 58.84664226 -44.56413918 54.81113525 -44.5840683 50.77503967 C-44.60206775 47.07363116 -44.59192911 43.37336128 -44.56020299 39.67205477 C-44.55042207 37.71307871 -44.56980753 35.75402238 -44.59054637 33.79513168 C-44.46631267 24.37099514 -42.08652925 16.71503439 -36.01493907 9.35995865 C-25.86690942 -0.45766327 -13.17588981 -0.06949538 0 0 Z " fill="#EF4036" transform="translate(43.7880859375,64.4920654296875)"/>
<path d="M0 0 C5.18079156 3.45386104 10.03561063 6.69283495 14.875 10.5 C20.18148844 14.63772161 25.57100175 18.64964966 31 22.625 C37.99974796 27.7540464 44.92441852 32.97203865 51.8125 38.25 C58.00788665 42.99509278 64.23807637 47.65469315 70.62329102 52.14038086 C75.93458392 55.89741358 81.08807844 59.85378893 86.25 63.8125 C92.76527027 68.80847263 99.32013738 73.72621451 106 78.5 C113.51246627 83.86975548 120.85715377 89.43845711 128.18359375 95.05859375 C134.43266016 99.83945073 140.76618507 104.48040226 147.17163086 109.04882812 C154.13296968 114.03743989 160.91637134 119.2523552 167.65820312 124.53320312 C178.16472489 132.66119928 186.45039722 137.29972209 200 136 C210.99351811 133.5637633 219.32466809 125.57602739 227.85595703 118.69677734 C230.76626013 116.39358826 233.76838835 114.24632264 236.8125 112.125 C242.74465039 107.96567616 248.50198254 103.59709421 254.25 99.1875 C260.76518395 94.19141851 267.32014125 89.27378272 274 84.5 C280.59480631 79.78616887 287.06822138 74.93383891 293.5 70 C299.93178632 65.06615518 306.40533849 60.21404065 313 55.5 C319.5697801 50.80207711 326.02589105 45.97404325 332.4375 41.0625 C341.41270048 34.18714536 350.47555201 27.44320415 359.59570312 20.76171875 C363.85910979 17.63776033 368.11740103 14.5068665 372.375 11.375 C373.16600098 10.79476074 373.95700195 10.21452148 374.77197266 9.61669922 C377.87665667 7.33346706 380.93742522 5.05150257 383.9140625 2.6015625 C386 1 386 1 388 1 C388 96.04 388 191.08 388 289 C259.96 289 131.92 289 0 289 C0 193.63 0 98.26 0 0 Z " fill="#F6F6F6" transform="translate(62,158)"/>
<path d="M0 0 C146.19 0 292.38 0 443 0 C440.55063919 1.63290721 438.80419947 2.48898133 436.125 3.5 C430.71416272 5.87591253 426.35850589 9.39324855 421.76171875 13.04296875 C417.56837092 16.36950374 413.25660028 19.52698887 408.9375 22.6875 C402.26159676 27.58566121 395.61708659 32.52267107 389 37.5 C382.54928035 42.35210108 376.07176825 47.16426275 369.5625 51.9375 C362.70986727 56.96367091 355.93407055 62.08245269 349.1875 67.25 C342.99201407 71.9949666 336.76192833 76.65468984 330.37670898 81.14038086 C325.06541608 84.89741358 319.91192156 88.85378893 314.75 92.8125 C308.23472973 97.80847263 301.67986262 102.72621451 295 107.5 C288.40519369 112.21383113 281.93177862 117.06616109 275.5 122 C268.36518412 127.47314115 261.16173587 132.82087798 253.83935547 138.04003906 C249.61816241 141.06364381 245.46445423 144.15837865 241.3515625 147.328125 C240.39894531 148.06224609 239.44632813 148.79636719 238.46484375 149.55273438 C236.60612297 150.99087803 234.75176447 152.4346818 232.90234375 153.88476562 C232.06058594 154.53638672 231.21882812 155.18800781 230.3515625 155.859375 C229.60729004 156.44170898 228.86301758 157.02404297 228.09619141 157.62402344 C225.94231649 159.03786446 224.5683578 159.80248303 222 160 C220.11914062 159.06640625 220.11914062 159.06640625 218.15625 157.5625 C217.41503906 157.00498047 216.67382812 156.44746094 215.91015625 155.87304688 C215.11480469 155.25494141 214.31945312 154.63683594 213.5 154 C212.24509766 153.04963867 212.24509766 153.04963867 210.96484375 152.08007812 C209.19406554 150.73813965 207.42722493 149.39099171 205.6640625 148.0390625 C202.28846129 145.45539119 198.88762019 142.90645788 195.484375 140.359375 C192.97663776 138.48251505 190.47272771 136.60062145 187.96875 134.71875 C183.16672038 131.11722778 178.33738394 127.55383265 173.5 124 C166.12389971 118.58107392 158.79281592 113.10493628 151.47827148 107.60327148 C145.86597977 103.38655692 140.22341245 99.21363914 134.5625 95.0625 C127.70986727 90.03632909 120.93407055 84.91754731 114.1875 79.75 C107.99201407 75.0050334 101.76192833 70.34531016 95.37670898 65.85961914 C90.06541608 62.10258642 84.91192156 58.14621107 79.75 54.1875 C72.52184422 48.64487983 65.22268301 43.23157001 57.81176758 37.93652344 C51.93148416 33.71677656 46.17801228 29.34491 40.4375 24.9375 C33.92245549 19.95572311 27.39642992 14.9932192 20.75 10.1875 C20.09572021 9.7020874 19.44144043 9.2166748 18.76733398 8.71655273 C14.71192831 5.82354101 10.87489982 4.05719025 6.08691406 2.66918945 C4 2 4 2 0 0 Z " fill="#F9F9F9" transform="translate(33,65)"/>
<path d="M0 0 C0.0915927 36.39186232 0.16205759 72.78370439 0.20426132 109.17565828 C0.20926403 113.47387654 0.21444133 117.77209458 0.21972656 122.0703125 C0.2207758 122.92599584 0.22182505 123.78167917 0.22290608 124.6632923 C0.24030248 138.51110491 0.27183594 152.35885098 0.30861118 166.20662414 C0.34604192 180.41996424 0.36824036 194.63326954 0.37635398 208.84665692 C0.38183733 217.61426224 0.39914436 226.38167945 0.43166587 235.14922686 C0.4528401 241.16474416 0.45919347 247.18016446 0.45400551 253.19571631 C0.45144823 256.66434053 0.45531663 260.13263644 0.4768219 263.60120201 C0.49675942 267.36833702 0.49192424 271.13467092 0.48101807 274.90182495 C0.49266943 275.9893987 0.5043208 277.07697244 0.51632524 278.19750297 C0.4389365 288.10547888 -2.27731458 295.58187854 -8.73046875 303.11328125 C-12.11581821 305.92760791 -16.15161996 307.86201109 -20 310 C-11.42 310.33 -2.84 310.66 6 311 C6 311.33 6 311.66 6 312 C-6.21 312 -18.42 312 -31 312 C-31.53489236 275.40512333 -31.9844215 238.81061537 -32.3013582 202.21317317 C-32.33888945 197.88877266 -32.37720887 193.56437947 -32.41601562 189.23999023 C-32.42372783 188.3791126 -32.43144003 187.51823497 -32.43938594 186.63127013 C-32.56600481 172.70703028 -32.75640744 158.78436077 -32.97055574 144.86122344 C-33.18900541 130.5656903 -33.33851143 116.27062342 -33.42455995 101.97367448 C-33.47978368 93.15669474 -33.58820031 84.34371358 -33.76559184 75.52833166 C-33.88221767 69.47616566 -33.9316223 63.42572688 -33.92919458 57.37244824 C-33.92974957 53.88258403 -33.95892176 50.3994581 -34.06832314 46.91116524 C-34.62361025 26.5428778 -34.62361025 26.5428778 -30.26100492 20.6516912 C-26.08730368 16.62482606 -21.41134336 13.85217605 -16.26788402 11.23754251 C-12.68210379 9.28084833 -9.59273423 6.76349213 -6.4375 4.1875 C-1.10492846 0 -1.10492846 0 0 0 Z " fill="#F34437" transform="translate(481,135)"/>
<path d="M0 0 C4.455 2.97 4.455 2.97 9 6 C10.7880496 7.04402954 12.58293731 8.07657858 14.38884258 9.08940887 C28.16643388 17.50779845 28.16643388 17.50779845 31.19442773 24.92632484 C32.92885563 32.63190067 32.69354734 40.4375087 32.43737805 48.28997397 C32.34565244 51.82476724 32.37744827 55.35889601 32.39332581 58.89454651 C32.40427576 65.00278155 32.33908427 71.10626378 32.22033119 77.21330261 C32.04876964 86.04189489 31.99488544 94.86821742 31.96858337 103.69829565 C31.92275668 118.0272139 31.78338399 132.35360457 31.58422852 146.68115234 C31.39111079 160.58890235 31.24264461 174.49596293 31.15356445 188.40478516 C31.14528866 189.69334238 31.14528866 189.69334238 31.13684569 191.00793105 C31.1094375 195.31799319 31.08290021 199.62806017 31.05679572 203.93813038 C30.83951533 239.62729496 30.46419409 275.31324336 30 311 C20.1 311 10.2 311 0 311 C0 208.37 0 105.74 0 0 Z " fill="#E53935" transform="translate(31,135)"/>
<path d="M0 0 C0.66 0.33 1.32 0.66 2 1 C-1.63 4.63 -5.26 8.26 -9 12 C-9 7.8407692 -6.75316432 5.85455565 -4 3 C-1.6875 1.125 -1.6875 1.125 0 0 Z " fill="#F55B51" transform="translate(14,69)"/>
</svg>
