<svg xmlns="http://www.w3.org/2000/svg" xmlns:xlink="http://www.w3.org/1999/xlink" width="2000" zoomAndPan="magnify" viewBox="0 0 1500 364.499989" height="486" preserveAspectRatio="xMidYMid meet" version="1.0"><defs><g/><clipPath id="c0738311ab"><path d="M 1 0.554688 L 246.769531 0.554688 L 246.769531 231.664062 L 1 231.664062 Z M 1 0.554688 " clip-rule="nonzero"/></clipPath><clipPath id="ac25094b74"><path d="M 219 130.542969 L 464.695312 130.542969 L 464.695312 361.652344 L 219 361.652344 Z M 219 130.542969 " clip-rule="nonzero"/></clipPath><clipPath id="16aa66c0b2"><rect x="0" width="941" y="0" height="154"/></clipPath><clipPath id="3579184620"><rect x="0" width="1435" y="0" height="362"/></clipPath></defs><g transform="matrix(1, 0, 0, 1, 26, 2)"><g clip-path="url(#3579184620)"><g clip-path="url(#c0738311ab)"><path fill="#000000" d="M 4.652344 124.109375 L 239.835938 43.039062 L 235.824219 70.960938 L 102.925781 117.019531 L 222.960938 162.636719 L 218.949219 190.558594 L 62.691406 130.757812 L 41.863281 137.851562 L 217.246094 205.179688 L 213.234375 233.097656 L 1.082031 152.03125 Z M 10.863281 81.570312 L 246.046875 0.554688 L 242.035156 28.476562 L 6.90625 109.488281 Z M 10.863281 81.570312 " fill-opacity="1" fill-rule="nonzero"/></g><g clip-path="url(#ac25094b74)"><path fill="#ee372b" d="M 461.027344 238.097656 L 225.847656 319.167969 L 229.859375 291.246094 L 362.757812 245.1875 L 242.71875 199.570312 L 246.730469 171.648438 L 402.988281 231.449219 L 423.820312 224.359375 L 248.4375 157.03125 L 252.449219 129.109375 L 464.601562 210.179688 Z M 454.816406 280.640625 L 219.636719 361.652344 L 223.648438 333.730469 L 458.773438 252.71875 Z M 454.816406 280.640625 " fill-opacity="1" fill-rule="nonzero"/></g><g transform="matrix(1, 0, 0, 1, 491, 208)"><g clip-path="url(#16aa66c0b2)"><g fill="#000000" fill-opacity="1"><g transform="translate(0.189634, 113.130778)"><g><path d="M 42.109375 -109.6875 C 45.953125 -109.6875 49.394531 -109.363281 52.4375 -108.71875 C 55.476562 -108.082031 58.757812 -107.226562 62.28125 -106.15625 C 63.882812 -105.625 65.515625 -105.171875 67.171875 -104.796875 C 68.828125 -104.421875 70.242188 -104.234375 71.421875 -104.234375 C 72.910156 -104.234375 74.132812 -104.660156 75.09375 -105.515625 C 76.0625 -106.367188 76.8125 -107.757812 77.34375 -109.6875 L 82.625 -109.6875 L 82.625 -74.625 L 77.65625 -74.625 C 74.351562 -82.945312 69.628906 -89.585938 63.484375 -94.546875 C 57.347656 -99.515625 50.914062 -102 44.1875 -102 C 39.382812 -102 35.539062 -100.820312 32.65625 -98.46875 C 29.78125 -96.125 28.34375 -92.976562 28.34375 -89.03125 C 28.34375 -86.144531 29.195312 -83.609375 30.90625 -81.421875 C 32.613281 -79.234375 34.800781 -77.3125 37.46875 -75.65625 C 40.132812 -74 43.976562 -71.890625 49 -69.328125 C 50.8125 -68.472656 53.535156 -67.085938 57.171875 -65.171875 C 64.421875 -61.328125 70.234375 -57.800781 74.609375 -54.59375 C 78.992188 -51.394531 82.519531 -47.582031 85.1875 -43.15625 C 87.851562 -38.726562 89.1875 -33.523438 89.1875 -27.546875 C 89.1875 -21.773438 87.664062 -16.566406 84.625 -11.921875 C 81.582031 -7.285156 77.414062 -3.628906 72.125 -0.953125 C 66.84375 1.710938 61.003906 3.046875 54.609375 3.046875 C 50.546875 3.046875 46.804688 2.644531 43.390625 1.84375 C 39.972656 1.039062 36.128906 -0.101562 31.859375 -1.59375 C 27.273438 -3.300781 24.070312 -4.15625 22.25 -4.15625 C 20.226562 -4.15625 18.390625 -3.515625 16.734375 -2.234375 C 15.078125 -0.953125 14.035156 0.75 13.609375 2.875 L 8.484375 2.875 L 8.484375 -34.59375 L 13.609375 -34.59375 C 17.128906 -25.625 22.195312 -18.492188 28.8125 -13.203125 C 35.4375 -7.921875 42.429688 -5.28125 49.796875 -5.28125 C 55.140625 -5.28125 59.546875 -6.773438 63.015625 -9.765625 C 66.484375 -12.753906 68.21875 -16.546875 68.21875 -21.140625 C 68.21875 -24.867188 67.226562 -28.09375 65.25 -30.8125 C 63.269531 -33.539062 60.679688 -35.945312 57.484375 -38.03125 C 54.285156 -40.113281 49.695312 -42.753906 43.71875 -45.953125 C 38.800781 -48.515625 35.914062 -50.0625 35.0625 -50.59375 C 26.414062 -55.40625 19.878906 -60.128906 15.453125 -64.765625 C 11.023438 -69.410156 8.8125 -75.3125 8.8125 -82.46875 C 8.8125 -87.476562 10.25 -92.066406 13.125 -96.234375 C 16.007812 -100.398438 19.988281 -103.679688 25.0625 -106.078125 C 30.132812 -108.484375 35.816406 -109.6875 42.109375 -109.6875 Z M 42.109375 -109.6875 "/></g></g></g><g fill="#000000" fill-opacity="1"><g transform="translate(95.914141, 113.130778)"><g><path d="M 65.8125 -109.6875 C 76.800781 -109.6875 86.910156 -107.175781 96.140625 -102.15625 C 105.378906 -97.144531 112.664062 -90.34375 118 -81.75 C 123.34375 -73.15625 126.015625 -63.679688 126.015625 -53.328125 C 126.015625 -42.972656 123.34375 -33.5 118 -24.90625 C 112.664062 -16.3125 105.378906 -9.503906 96.140625 -4.484375 C 86.910156 0.535156 76.800781 3.046875 65.8125 3.046875 C 54.8125 3.046875 44.722656 0.535156 35.546875 -4.484375 C 26.367188 -9.503906 19.109375 -16.335938 13.765625 -24.984375 C 8.429688 -33.628906 5.765625 -43.078125 5.765625 -53.328125 C 5.765625 -63.566406 8.429688 -73.007812 13.765625 -81.65625 C 19.109375 -90.3125 26.367188 -97.144531 35.546875 -102.15625 C 44.722656 -107.175781 54.8125 -109.6875 65.8125 -109.6875 Z M 30.75 -53.328125 C 30.75 -37.847656 33.816406 -25.863281 39.953125 -17.375 C 46.085938 -8.882812 54.707031 -4.640625 65.8125 -4.640625 C 77.019531 -4.640625 85.691406 -8.882812 91.828125 -17.375 C 97.960938 -25.863281 101.03125 -37.847656 101.03125 -53.328125 C 101.03125 -68.265625 98.066406 -80.109375 92.140625 -88.859375 C 86.222656 -97.617188 77.394531 -102 65.65625 -102 C 53.695312 -102 44.890625 -97.378906 39.234375 -88.140625 C 33.578125 -78.910156 30.75 -67.304688 30.75 -53.328125 Z M 30.75 -53.328125 "/></g></g></g><g fill="#000000" fill-opacity="1"><g transform="translate(228.295678, 113.130778)"><g><path d="M 62.921875 -102.640625 L 59.890625 -102.640625 C 55.828125 -102.535156 52.703125 -102.132812 50.515625 -101.4375 C 48.328125 -100.738281 46.671875 -99.242188 45.546875 -96.953125 C 44.429688 -94.660156 43.875 -91.269531 43.875 -86.78125 L 43.875 -18.578125 C 43.875 -15.585938 44.085938 -13.425781 44.515625 -12.09375 C 44.941406 -10.757812 45.769531 -9.847656 47 -9.359375 C 48.226562 -8.878906 50.175781 -8.640625 52.84375 -8.640625 L 74.296875 -8.640625 C 79.628906 -8.640625 84.003906 -9.226562 87.421875 -10.40625 C 90.835938 -11.582031 93.878906 -13.609375 96.546875 -16.484375 C 99.222656 -19.367188 102.054688 -23.585938 105.046875 -29.140625 L 110.328125 -29.140625 L 100.5625 0 L 2.875 0 L 2.875 -5.125 L 7.046875 -5.125 C 10.671875 -5.226562 13.523438 -5.679688 15.609375 -6.484375 C 17.691406 -7.285156 19.238281 -8.804688 20.25 -11.046875 C 21.269531 -13.285156 21.78125 -16.539062 21.78125 -20.8125 L 21.78125 -86.78125 C 21.78125 -91.050781 21.269531 -94.304688 20.25 -96.546875 C 19.238281 -98.796875 17.640625 -100.347656 15.453125 -101.203125 C 13.265625 -102.054688 10.25 -102.535156 6.40625 -102.640625 L 3.84375 -102.640625 L 3.84375 -107.765625 L 62.921875 -107.765625 Z M 62.921875 -102.640625 "/></g></g></g><g fill="#000000" fill-opacity="1"><g transform="translate(342.268667, 113.130778)"><g><path d="M 62.921875 -102.640625 L 58.765625 -102.640625 C 53.316406 -102.640625 49.445312 -101.570312 47.15625 -99.4375 C 44.863281 -97.300781 43.71875 -93.082031 43.71875 -86.78125 L 43.71875 -37.625 C 43.71875 -31.644531 45.078125 -26.382812 47.796875 -21.84375 C 50.515625 -17.3125 54.351562 -13.765625 59.3125 -11.203125 C 64.28125 -8.640625 70.078125 -7.359375 76.703125 -7.359375 C 83.847656 -7.359375 90.195312 -8.773438 95.75 -11.609375 C 101.300781 -14.441406 105.570312 -18.285156 108.5625 -23.140625 C 111.550781 -27.992188 113.046875 -33.359375 113.046875 -39.234375 L 113.046875 -88.390625 C 113.046875 -94.265625 111.710938 -98.109375 109.046875 -99.921875 C 106.378906 -101.734375 102.585938 -102.640625 97.671875 -102.640625 L 95.109375 -102.640625 L 95.109375 -107.765625 L 138.671875 -107.765625 L 138.671875 -102.640625 L 134.828125 -102.640625 C 130.128906 -102.640625 126.65625 -101.488281 124.40625 -99.1875 C 122.164062 -96.894531 121.046875 -92.757812 121.046875 -86.78125 L 121.046875 -40.03125 C 121.046875 -31.488281 119.046875 -23.960938 115.046875 -17.453125 C 111.046875 -10.941406 105.363281 -5.894531 98 -2.3125 C 90.632812 1.257812 81.988281 3.046875 72.0625 3.046875 C 62.132812 3.046875 53.351562 1.421875 45.71875 -1.828125 C 38.082031 -5.085938 32.15625 -9.597656 27.9375 -15.359375 C 23.71875 -21.128906 21.609375 -27.753906 21.609375 -35.234375 L 21.609375 -88.546875 C 21.609375 -94.097656 20.328125 -97.832031 17.765625 -99.75 C 15.210938 -101.675781 11.425781 -102.640625 6.40625 -102.640625 L 3.046875 -102.640625 L 3.046875 -107.765625 L 62.921875 -107.765625 Z M 62.921875 -102.640625 "/></g></g></g><g fill="#000000" fill-opacity="1"><g transform="translate(484.574765, 113.130778)"><g><path d="M 108.71875 -82.140625 L 103.59375 -82.140625 C 103.0625 -88.222656 101.164062 -92.625 97.90625 -95.34375 C 94.65625 -98.070312 89.773438 -99.4375 83.265625 -99.4375 L 67.734375 -99.4375 L 67.734375 -20.96875 C 67.734375 -16.59375 68.238281 -13.285156 69.25 -11.046875 C 70.269531 -8.804688 71.816406 -7.285156 73.890625 -6.484375 C 75.972656 -5.679688 78.882812 -5.226562 82.625 -5.125 L 86.3125 -5.125 L 86.3125 0 L 27.0625 0 L 27.0625 -5.125 L 29.78125 -5.125 C 33.519531 -5.125 36.507812 -5.523438 38.75 -6.328125 C 40.988281 -7.128906 42.695312 -8.675781 43.875 -10.96875 C 45.050781 -13.257812 45.640625 -16.648438 45.640625 -21.140625 L 45.640625 -99.4375 L 32.34375 -99.4375 C 24.65625 -99.4375 19.207031 -98.101562 16 -95.4375 C 12.800781 -92.769531 10.722656 -88.335938 9.765625 -82.140625 L 4.640625 -82.140625 L 5.28125 -107.765625 L 108.078125 -107.765625 Z M 108.71875 -82.140625 "/></g></g></g><g fill="#000000" fill-opacity="1"><g transform="translate(598.547754, 113.130778)"><g><path d="M 63.40625 -102.640625 L 59.890625 -102.640625 C 56.148438 -102.535156 53.238281 -102.082031 51.15625 -101.28125 C 49.070312 -100.476562 47.492188 -98.957031 46.421875 -96.71875 C 45.359375 -94.476562 44.828125 -91.164062 44.828125 -86.78125 L 44.828125 -20.96875 C 44.828125 -16.59375 45.359375 -13.285156 46.421875 -11.046875 C 47.492188 -8.804688 49.070312 -7.257812 51.15625 -6.40625 C 53.238281 -5.550781 56.039062 -5.125 59.5625 -5.125 L 63.40625 -5.125 L 63.40625 0 L 3.203125 0 L 3.203125 -5.125 L 6.5625 -5.125 C 10.726562 -5.226562 13.929688 -5.65625 16.171875 -6.40625 C 18.410156 -7.15625 20.0625 -8.648438 21.125 -10.890625 C 22.195312 -13.128906 22.734375 -16.488281 22.734375 -20.96875 L 22.734375 -86.78125 C 22.734375 -91.269531 22.195312 -94.632812 21.125 -96.875 C 20.0625 -99.113281 18.460938 -100.609375 16.328125 -101.359375 C 14.191406 -102.109375 11.203125 -102.535156 7.359375 -102.640625 L 3.203125 -102.640625 L 3.203125 -107.765625 L 63.40625 -107.765625 Z M 63.40625 -102.640625 "/></g></g></g><g fill="#000000" fill-opacity="1"><g transform="translate(665.77909, 113.130778)"><g><path d="M 65.8125 -109.6875 C 76.800781 -109.6875 86.910156 -107.175781 96.140625 -102.15625 C 105.378906 -97.144531 112.664062 -90.34375 118 -81.75 C 123.34375 -73.15625 126.015625 -63.679688 126.015625 -53.328125 C 126.015625 -42.972656 123.34375 -33.5 118 -24.90625 C 112.664062 -16.3125 105.378906 -9.503906 96.140625 -4.484375 C 86.910156 0.535156 76.800781 3.046875 65.8125 3.046875 C 54.8125 3.046875 44.722656 0.535156 35.546875 -4.484375 C 26.367188 -9.503906 19.109375 -16.335938 13.765625 -24.984375 C 8.429688 -33.628906 5.765625 -43.078125 5.765625 -53.328125 C 5.765625 -63.566406 8.429688 -73.007812 13.765625 -81.65625 C 19.109375 -90.3125 26.367188 -97.144531 35.546875 -102.15625 C 44.722656 -107.175781 54.8125 -109.6875 65.8125 -109.6875 Z M 30.75 -53.328125 C 30.75 -37.847656 33.816406 -25.863281 39.953125 -17.375 C 46.085938 -8.882812 54.707031 -4.640625 65.8125 -4.640625 C 77.019531 -4.640625 85.691406 -8.882812 91.828125 -17.375 C 97.960938 -25.863281 101.03125 -37.847656 101.03125 -53.328125 C 101.03125 -68.265625 98.066406 -80.109375 92.140625 -88.859375 C 86.222656 -97.617188 77.394531 -102 65.65625 -102 C 53.695312 -102 44.890625 -97.378906 39.234375 -88.140625 C 33.578125 -78.910156 30.75 -67.304688 30.75 -53.328125 Z M 30.75 -53.328125 "/></g></g></g><g fill="#000000" fill-opacity="1"><g transform="translate(798.160628, 113.130778)"><g><path d="M 111.125 -34.265625 L 111.125 -88.390625 C 111.125 -94.046875 109.867188 -97.832031 107.359375 -99.75 C 104.847656 -101.675781 101.191406 -102.640625 96.390625 -102.640625 L 91.4375 -102.640625 L 91.4375 -107.765625 L 137.703125 -107.765625 L 137.703125 -102.640625 L 133.0625 -102.640625 C 128.15625 -102.535156 124.609375 -101.414062 122.421875 -99.28125 C 120.234375 -97.144531 119.140625 -92.976562 119.140625 -86.78125 L 119.140625 0.953125 L 116.09375 0.953125 L 31.703125 -83.421875 L 31.703125 -20.96875 C 31.703125 -16.382812 32.289062 -12.96875 33.46875 -10.71875 C 34.644531 -8.476562 36.351562 -6.984375 38.59375 -6.234375 C 40.832031 -5.492188 44.035156 -5.125 48.203125 -5.125 L 51.875 -5.125 L 51.875 0 L 4 0 L 4 -5.125 L 9.453125 -5.125 C 14.035156 -5.125 17.554688 -6.082031 20.015625 -8 C 22.472656 -9.925781 23.703125 -13.769531 23.703125 -19.53125 L 23.703125 -91.265625 C 21.140625 -94.578125 18.148438 -97.21875 14.734375 -99.1875 C 11.316406 -101.164062 7.738281 -102.316406 4 -102.640625 L 4 -107.765625 L 38.4375 -107.765625 Z M 111.125 -34.265625 "/></g></g></g></g></g><g fill="#000000" fill-opacity="1"><g transform="translate(491.189629, 181.783434)"><g><path d="M 57.703125 -151.140625 C 64.441406 -151.140625 70.25 -150.457031 75.125 -149.09375 C 80.007812 -147.726562 85.394531 -145.828125 91.28125 -143.390625 C 93.289062 -142.523438 95.226562 -141.769531 97.09375 -141.125 C 98.957031 -140.476562 100.535156 -140.15625 101.828125 -140.15625 C 104.128906 -140.15625 106 -141.085938 107.4375 -142.953125 C 108.875 -144.816406 109.59375 -147.546875 109.59375 -151.140625 L 113.671875 -151.140625 L 113.671875 -103.34375 L 109.59375 -103.34375 C 108.15625 -110.945312 105.066406 -117.765625 100.328125 -123.796875 C 95.585938 -129.828125 89.703125 -134.488281 82.671875 -137.78125 C 75.640625 -141.082031 68.101562 -142.734375 60.0625 -142.734375 C 51.3125 -142.734375 44.132812 -140.617188 38.53125 -136.390625 C 32.9375 -132.160156 30.140625 -126.882812 30.140625 -120.5625 C 30.140625 -115.832031 31.789062 -111.816406 35.09375 -108.515625 C 38.394531 -105.210938 42.519531 -102.484375 47.46875 -100.328125 C 52.425781 -98.171875 59.28125 -95.660156 68.03125 -92.796875 C 76.789062 -89.921875 84.113281 -87.265625 90 -84.828125 C 95.882812 -82.390625 101.050781 -79.375 105.5 -75.78125 C 110.519531 -71.625 114.644531 -66.671875 117.875 -60.921875 C 121.101562 -55.179688 122.71875 -48.722656 122.71875 -41.546875 C 122.71875 -32.796875 120.347656 -25.046875 115.609375 -18.296875 C 110.878906 -11.554688 104.242188 -6.316406 95.703125 -2.578125 C 87.160156 1.148438 77.289062 3.015625 66.09375 3.015625 C 59.0625 3.015625 53.140625 2.40625 48.328125 1.1875 C 43.523438 -0.03125 38.613281 -1.644531 33.59375 -3.65625 C 28.851562 -5.664062 25.332031 -6.671875 23.03125 -6.671875 C 20.445312 -6.671875 18.222656 -5.878906 16.359375 -4.296875 C 14.492188 -2.722656 12.84375 -0.285156 11.40625 3.015625 L 7.3125 3.015625 L 7.3125 -51.234375 L 11.40625 -51.234375 C 13.988281 -36.890625 20.125 -25.515625 29.8125 -17.109375 C 39.5 -8.710938 51.234375 -4.515625 65.015625 -4.515625 C 75.347656 -4.515625 83.53125 -6.628906 89.5625 -10.859375 C 95.59375 -15.097656 98.609375 -20.804688 98.609375 -27.984375 C 98.609375 -33.585938 96.847656 -38.328125 93.328125 -42.203125 C 89.816406 -46.078125 85.441406 -49.234375 80.203125 -51.671875 C 74.960938 -54.109375 67.890625 -56.835938 58.984375 -59.859375 C 47.929688 -63.734375 38.992188 -67.351562 32.171875 -70.71875 C 25.359375 -74.09375 19.546875 -78.828125 14.734375 -84.921875 C 9.929688 -91.023438 7.53125 -98.742188 7.53125 -108.078125 C 7.53125 -116.253906 9.679688 -123.609375 13.984375 -130.140625 C 18.296875 -136.671875 24.253906 -141.800781 31.859375 -145.53125 C 39.472656 -149.269531 48.085938 -151.140625 57.703125 -151.140625 Z M 57.703125 -151.140625 "/></g></g></g><g fill="#000000" fill-opacity="1"><g transform="translate(621.22503, 181.783434)"><g><path d="M 79.4375 -144.03125 C 73.988281 -143.882812 69.898438 -143.453125 67.171875 -142.734375 C 64.441406 -142.023438 62.359375 -140.378906 60.921875 -137.796875 C 59.492188 -135.210938 58.78125 -131.046875 58.78125 -125.296875 L 58.78125 -22.390625 C 58.78125 -16.796875 59.457031 -12.707031 60.8125 -10.125 C 62.175781 -7.539062 64.222656 -5.890625 66.953125 -5.171875 C 69.679688 -4.453125 73.84375 -4.019531 79.4375 -3.875 L 79.4375 0 L 3.65625 0 L 3.65625 -3.875 C 9.113281 -3.875 13.203125 -4.234375 15.921875 -4.953125 C 18.648438 -5.671875 20.734375 -7.359375 22.171875 -10.015625 C 23.609375 -12.671875 24.328125 -16.796875 24.328125 -22.390625 L 24.328125 -125.296875 C 24.328125 -130.898438 23.609375 -135.03125 22.171875 -137.6875 C 20.734375 -140.34375 18.613281 -142.023438 15.8125 -142.734375 C 13.019531 -143.453125 8.96875 -143.882812 3.65625 -144.03125 L 3.65625 -147.90625 L 79.4375 -147.90625 Z M 79.4375 -144.03125 "/></g></g></g><g fill="#000000" fill-opacity="1"><g transform="translate(704.111825, 181.783434)"><g><path d="M 107 -46.28125 L 152.640625 -147.90625 L 210.125 -147.90625 L 210.125 -144.03125 C 205.25 -143.882812 201.484375 -143.453125 198.828125 -142.734375 C 196.171875 -142.023438 194.160156 -140.445312 192.796875 -138 C 191.429688 -135.5625 190.75 -131.90625 190.75 -127.03125 L 190.75 -22.609375 C 190.75 -17.003906 191.429688 -12.875 192.796875 -10.21875 C 194.160156 -7.570312 196.132812 -5.890625 198.71875 -5.171875 C 201.300781 -4.453125 205.101562 -4.019531 210.125 -3.875 L 210.125 0 L 135.203125 0 L 135.203125 -3.875 C 140.804688 -4.019531 145.039062 -4.484375 147.90625 -5.265625 C 150.78125 -6.054688 152.898438 -7.742188 154.265625 -10.328125 C 155.628906 -12.910156 156.3125 -16.929688 156.3125 -22.390625 L 156.3125 -136.71875 L 155.875 -136.71875 L 94.734375 0 L 91.71875 0 L 30.78125 -135.640625 L 30.359375 -135.640625 L 30.359375 -21.53125 C 30.359375 -15.5 32.078125 -11.046875 35.515625 -8.171875 C 38.960938 -5.304688 44.203125 -3.875 51.234375 -3.875 L 51.234375 0 L 3.234375 0 L 3.234375 -3.875 C 9.691406 -3.875 14.570312 -5.59375 17.875 -9.03125 C 21.175781 -12.476562 22.828125 -16.859375 22.828125 -22.171875 L 22.828125 -125.296875 C 22.828125 -130.460938 22.210938 -134.375 20.984375 -137.03125 C 19.765625 -139.6875 17.789062 -141.476562 15.0625 -142.40625 C 12.34375 -143.34375 8.398438 -143.882812 3.234375 -144.03125 L 3.234375 -147.90625 L 61.140625 -147.90625 Z M 107 -46.28125 "/></g></g></g><g fill="#000000" fill-opacity="1"><g transform="translate(917.249303, 181.783434)"><g><path d="M 138.4375 -107.859375 C 138.4375 -100.398438 136.210938 -93.617188 131.765625 -87.515625 C 127.316406 -81.421875 120.75 -76.578125 112.0625 -72.984375 C 103.375 -69.398438 93.003906 -67.609375 80.953125 -67.609375 L 59.421875 -67.609375 L 59.421875 -22.390625 C 59.421875 -17.078125 60.101562 -13.128906 61.46875 -10.546875 C 62.832031 -7.960938 64.84375 -6.238281 67.5 -5.375 C 70.15625 -4.519531 73.992188 -4.019531 79.015625 -3.875 L 79.015625 0 L 3.875 0 L 3.875 -3.875 C 9.332031 -4.019531 13.492188 -4.484375 16.359375 -5.265625 C 19.234375 -6.054688 21.382812 -7.742188 22.8125 -10.328125 C 24.25 -12.910156 24.96875 -16.929688 24.96875 -22.390625 L 24.96875 -126.8125 C 24.96875 -133.695312 23.242188 -138.285156 19.796875 -140.578125 C 16.359375 -142.878906 11.050781 -144.03125 3.875 -144.03125 L 3.875 -147.90625 L 83.75 -147.90625 C 92.644531 -147.90625 101.289062 -146.394531 109.6875 -143.375 C 118.082031 -140.363281 124.972656 -135.84375 130.359375 -129.8125 C 135.742188 -123.789062 138.4375 -116.472656 138.4375 -107.859375 Z M 101.40625 -107.21875 C 101.40625 -116.40625 99.96875 -123.363281 97.09375 -128.09375 C 94.226562 -132.832031 90.460938 -135.988281 85.796875 -137.5625 C 81.128906 -139.144531 75.28125 -139.9375 68.25 -139.9375 L 59.421875 -139.9375 L 59.421875 -75.5625 L 73.421875 -75.5625 C 81.453125 -75.5625 88.125 -78.070312 93.4375 -83.09375 C 98.75 -88.125 101.40625 -96.164062 101.40625 -107.21875 Z M 101.40625 -107.21875 "/></g></g></g><g fill="#000000" fill-opacity="1"><g transform="translate(1060.848005, 181.783434)"><g><path d="M 86.984375 -144.03125 C 79.660156 -143.882812 74.347656 -143.488281 71.046875 -142.84375 C 67.742188 -142.195312 65.265625 -140.582031 63.609375 -138 C 61.960938 -135.414062 61.140625 -131.179688 61.140625 -125.296875 L 61.140625 -19.8125 C 61.140625 -15.644531 62.179688 -12.628906 64.265625 -10.765625 C 66.347656 -8.898438 69.6875 -7.96875 74.28125 -7.96875 L 90 -7.96875 C 102.050781 -7.96875 111.628906 -11.410156 118.734375 -18.296875 C 125.835938 -25.191406 131.113281 -35.882812 134.5625 -50.375 L 138.4375 -50.375 L 133.265625 0 L 3.4375 0 L 3.4375 -3.875 C 9.757812 -4.019531 14.5 -4.554688 17.65625 -5.484375 C 20.8125 -6.421875 23.109375 -8.179688 24.546875 -10.765625 C 25.984375 -13.347656 26.703125 -17.296875 26.703125 -22.609375 L 26.703125 -125.296875 C 26.703125 -131.179688 25.875 -135.414062 24.21875 -138 C 22.570312 -140.582031 20.273438 -142.195312 17.328125 -142.84375 C 14.390625 -143.488281 9.757812 -143.882812 3.4375 -144.03125 L 3.4375 -147.90625 L 86.984375 -147.90625 Z M 86.984375 -144.03125 "/></g></g></g><g fill="#ee372b" fill-opacity="1"><g transform="translate(1204.468648, 181.783434)"><g><path d="M 79.4375 -144.03125 C 73.988281 -143.882812 69.898438 -143.453125 67.171875 -142.734375 C 64.441406 -142.023438 62.359375 -140.378906 60.921875 -137.796875 C 59.492188 -135.210938 58.78125 -131.046875 58.78125 -125.296875 L 58.78125 -22.390625 C 58.78125 -16.796875 59.457031 -12.707031 60.8125 -10.125 C 62.175781 -7.539062 64.222656 -5.890625 66.953125 -5.171875 C 69.679688 -4.453125 73.84375 -4.019531 79.4375 -3.875 L 79.4375 0 L 3.65625 0 L 3.65625 -3.875 C 9.113281 -3.875 13.203125 -4.234375 15.921875 -4.953125 C 18.648438 -5.671875 20.734375 -7.359375 22.171875 -10.015625 C 23.609375 -12.671875 24.328125 -16.796875 24.328125 -22.390625 L 24.328125 -125.296875 C 24.328125 -130.898438 23.609375 -135.03125 22.171875 -137.6875 C 20.734375 -140.34375 18.613281 -142.023438 15.8125 -142.734375 C 13.019531 -143.453125 8.96875 -143.882812 3.65625 -144.03125 L 3.65625 -147.90625 L 79.4375 -147.90625 Z M 79.4375 -144.03125 "/></g></g></g><g fill="#ee372b" fill-opacity="1"><g transform="translate(1287.355443, 181.783434)"><g><path d="M 137.578125 -109.15625 L 133.703125 -109.15625 C 132.691406 -119.34375 129.492188 -127.019531 124.109375 -132.1875 C 118.734375 -137.351562 112.597656 -139.9375 105.703125 -139.9375 L 88.921875 -139.9375 L 88.921875 -23.25 C 88.921875 -17.9375 89.632812 -13.914062 91.0625 -11.1875 C 92.5 -8.46875 94.722656 -6.601562 97.734375 -5.59375 C 100.753906 -4.59375 104.992188 -4.019531 110.453125 -3.875 L 110.453125 0 L 32.9375 0 L 32.9375 -3.875 C 38.394531 -3.875 42.59375 -4.269531 45.53125 -5.0625 C 48.476562 -5.851562 50.703125 -7.609375 52.203125 -10.328125 C 53.710938 -13.054688 54.46875 -17.222656 54.46875 -22.828125 L 54.46875 -139.9375 L 35.953125 -139.9375 C 29.492188 -139.9375 23.753906 -137.101562 18.734375 -131.4375 C 13.710938 -125.769531 10.695312 -118.34375 9.6875 -109.15625 L 5.8125 -109.15625 L 5.8125 -147.90625 L 137.578125 -147.90625 Z M 137.578125 -109.15625 "/></g></g></g></g></g></svg>