<?xml version="1.0" encoding="UTF-8"?>
<svg xmlns="http://www.w3.org/2000/svg" xmlns:xlink="http://www.w3.org/1999/xlink" xmlns:svgjs="http://svgjs.com/svgjs" version="1.1" width="512" height="512" x="0" y="0" viewBox="0 0 512 512" style="enable-background:new 0 0 512 512" xml:space="preserve" class="">
  <g>
    <g fill-rule="evenodd">
      <path fill="#ffcec0" d="m346.146 147.901-160-60.69-160 60.69v197.93l160 60.69 160-60.69z" data-original="#ffcec0"></path>
      <path fill="#fdb0a0" d="m26.146 147.901 160 60.689v197.931l-160-60.69z" data-original="#fdb0a0"></path>
      <path fill="#f29988" d="m26.146 147.901 160 60.689 160-60.689-160-60.69z" data-original="#f29988"></path>
      <path fill="#c86f5c" d="m128.053 186.734 160.236-60.779-44.048-16.709-160.237 60.78v59.12l44.049 16.708z" data-original="#c86f5c"></path>
      <path fill="#a34f41" d="m128.053 186.734.236-.09-44.048-16.708-.237.09v59.12l44.049 16.708z" data-original="#a34f41"></path>
      <path fill="#e8333c" d="M362.001 67.529V17.594c0-3.629-2.961-6.59-6.59-6.59h-18.612c-3.629 0-6.59 2.961-6.59 6.59v49.935h-19.126c-3.221 0-5.013 3.709-3.011 6.232l35.023 44.139a3.842 3.842 0 0 0 6.02 0l35.023-44.139c2.002-2.523.211-6.232-3.01-6.232h-19.126z" data-original="#e8333c"></path>
      <path fill="#fb545c" d="M342.911 11.004h-6.112c-3.629 0-6.59 2.961-6.59 6.59v49.935h-19.126c-3.221 0-5.013 3.709-3.011 6.232l31.783 40.056 31.783-40.056c2.002-2.523.211-6.232-3.01-6.232h-19.126V17.594c0-3.629-2.961-6.59-6.59-6.59z" data-original="#fb545c"></path>
    </g>
    <circle cx="355.718" cy="371.324" r="129.68" fill="#b6dbff" transform="rotate(-2.56 355.07 369.762)" data-original="#b6dbff"></circle>
    <circle cx="355.718" cy="371.324" r="102.246" fill="#ffeb87" transform="rotate(-45 355.677 371.417)" data-original="#ffeb87"></circle>
    <path fill="#f3f3ff" fill-rule="evenodd" d="M283.419 443.623c18.503 18.503 44.064 29.947 72.299 29.947s53.796-11.444 72.299-29.947l-72.299-72.299z" data-original="#f3f3ff"></path>
    <circle cx="355.718" cy="371.324" r="17.115" fill="#e8333c" data-original="#e8333c"></circle>
    <path fill="#ff6b72" fill-rule="evenodd" d="M351.031 387.79c-7.174-2.038-12.428-8.638-12.428-16.466s5.254-14.427 12.428-16.466c7.174 2.038 12.428 8.638 12.428 16.466s-5.254 14.427-12.428 16.466z" data-original="#ff6b72"></path>
    <path fill-rule="evenodd" d="M402.524 161.833a7.001 7.001 0 0 1 6.999-6.999h10.643c3.871 0 6.998 3.133 6.998 6.999s-3.128 6.999-6.998 6.999h-10.643a7.001 7.001 0 0 1-6.999-6.999zm0-57.436a7.003 7.003 0 0 1 6.999-7.004h27.002c3.87 0 6.999 3.133 6.999 7.004s-3.128 6.999-6.999 6.999h-27.002a7.001 7.001 0 0 1-6.999-6.999zm0 86.153a7.002 7.002 0 0 1 6.999-7.003h27.002c3.87 0 6.999 3.133 6.999 7.003s-3.128 6.999-6.999 6.999h-27.002a7.001 7.001 0 0 1-6.999-6.999zm0-57.436a7.003 7.003 0 0 1 6.999-7.004h10.643c3.871 0 6.998 3.133 6.998 7.004s-3.128 6.999-6.998 6.999h-10.643a7.001 7.001 0 0 1-6.999-6.999zm0-114.871a7.003 7.003 0 0 1 6.999-7.004h27.002c3.87 0 6.999 3.133 6.999 7.004s-3.128 6.999-6.999 6.999h-27.002a7.001 7.001 0 0 1-6.999-6.999zm0 57.436a7.003 7.003 0 0 1 6.999-7.004h10.643c3.871 0 6.998 3.133 6.998 7.004s-3.128 6.999-6.998 6.999h-10.643a7.001 7.001 0 0 1-6.999-6.999zm0-28.718c0-3.866 3.138-7.004 6.999-7.004h10.643c3.871 0 6.998 3.138 6.998 7.004s-3.128 6.999-6.998 6.999h-10.643a7.001 7.001 0 0 1-6.999-6.999zm-72.108 27.566c3.856 0 6.999-3.138 6.999-7.004v-49.52h17.791v49.521a7 7 0 0 0 6.999 7.004h12.59l-28.491 35.904-28.487-35.904h12.599zm7.399 47.718c2.068 2.608 5.162 4.107 8.488 4.107s6.43-1.499 8.502-4.102l35.017-44.142a10.757 10.757 0 0 0 1.273-11.457c-1.822-3.779-5.572-6.126-9.77-6.126h-12.122V17.594c0-7.495-6.097-13.593-13.587-13.593h-18.61c-7.5 0-13.592 6.097-13.592 13.593v42.932h-12.127c-4.203 0-7.938 2.347-9.77 6.126-1.822 3.779-1.33 8.17 1.277 11.457l35.023 44.137zm12.151 249.076c0-3.282 2.665-5.953 5.958-5.953s5.953 2.67 5.953 5.953a5.955 5.955 0 0 1-11.911 0zm24.1 8.247a19.857 19.857 0 0 0 1.807-8.247c0-11-8.951-19.95-19.95-19.95s-19.96 8.951-19.96 19.95 8.951 19.95 19.96 19.95c2.94 0 5.731-.65 8.242-1.802l26.409 26.409a6.995 6.995 0 0 0 9.9 0 6.994 6.994 0 0 0 0-9.901l-26.409-26.409zm91.099-8.247c0-60.241-49.01-109.246-109.241-109.246S246.673 311.08 246.673 371.321c0 29.18 11.361 56.621 32 77.251a7.019 7.019 0 0 0 4.95 2.049 7.048 7.048 0 0 0 4.95-2.049l11.891-11.891c2.728-2.733 2.728-7.172 0-9.9a7.01 7.01 0 0 0-9.9 0l-6.772 6.758c-13.429-15.53-21.367-34.729-22.847-55.219h9.548c3.861 0 6.999-3.133 6.999-6.998s-3.138-7.004-6.999-7.004h-9.558c1.528-21.011 9.91-40.137 22.9-55.189l6.729 6.729c1.369 1.374 3.162 2.053 4.95 2.053s3.581-.68 4.95-2.053c2.728-2.728 2.728-7.158 0-9.895l-6.729-6.724c15.038-12.995 34.179-21.367 55.189-22.91v9.563c0 3.87 3.128 6.999 6.999 6.999s6.999-3.128 6.999-6.999v-9.563c21.001 1.542 40.141 9.915 55.18 22.91l-6.729 6.724c-2.728 2.738-2.728 7.167 0 9.895 1.374 1.374 3.162 2.053 4.95 2.053s3.591-.68 4.95-2.053l6.729-6.729c13 15.053 21.372 34.179 22.9 55.189h-9.548c-3.87 0-6.999 3.142-6.999 7.004s3.128 6.998 6.999 6.998h9.539a95.04 95.04 0 0 1-4.039 21.44l-8.922-3.519a6.98 6.98 0 0 0-9.076 3.929c-1.432 3.6.337 7.659 3.928 9.09l8.932 3.528a94.936 94.936 0 0 1-13.67 20.75l-6.772-6.758c-2.728-2.728-7.158-2.728-9.9 0-2.728 2.728-2.728 7.167 0 9.9l11.891 11.891a7.01 7.01 0 0 0 9.9 0c20.64-20.63 32-48.07 32-77.251zM355.924 494c67.639 0 122.68-55.03 122.68-122.679s-55.04-122.68-122.68-122.68-122.68 55.04-122.68 122.68S288.274 494 355.924 494zm-162.58-97.673v-182.9l145.96-55.363v77.593c-67.563 8.223-120.057 65.924-120.057 135.665 0 5.027.275 9.997.81 14.889l-26.713 10.117zM33.396 158.064l43.988 16.687v54.187a7.003 7.003 0 0 0 4.521 6.546l43.968 16.682a7.002 7.002 0 0 0 6.459-.786 6.996 6.996 0 0 0 3.022-5.76v-48.875l43.988 16.682v182.901L33.396 340.97zm152.95-63.326-140.22 53.185 38.257 14.513 140.224-53.189-38.261-14.508zm-82.22 75.183 24.231 9.192 140.22-53.184-24.23-9.196-140.22 53.189zm-12.739 10.141v44.045l29.971 11.371v-44.046zm94.959 21.049 140.22-53.189-38.252-14.508-140.22 53.184zm169.579 33.528c-.882 0-1.75.019-2.617.038v-86.756a6.997 6.997 0 0 0-4.521-6.541L188.834 80.706a7.007 7.007 0 0 0-4.969 0l-159.96 60.676a6.988 6.988 0 0 0-4.512 6.541V345.8a6.996 6.996 0 0 0 4.512 6.551l159.958 60.67a6.896 6.896 0 0 0 4.969 0l33.514-12.71C235.673 461.8 290.497 508 355.924 508c75.361 0 136.682-61.311 136.682-136.677s-61.32-136.682-136.682-136.682z" fill="#000000" data-original="#000000" class=""></path>
  </g>
</svg>
