<?xml version="1.0" encoding="UTF-8"?>
<svg version="1.1" xmlns="http://www.w3.org/2000/svg" width="512" height="512">
<path d="M0 0 C1.01790619 0.00215515 2.03581238 0.0043103 3.08456421 0.00653076 C17.69363523 0.05620146 32.02575853 0.30709809 46.375 3.3125 C47.34985352 3.51117676 48.32470703 3.70985352 49.32910156 3.91455078 C97.7109774 14.03517194 141.69928269 35.9516877 177.375 70.3125 C178.3640332 71.26068604 178.3640332 71.26068604 179.37304688 72.22802734 C188.86130305 81.37247479 197.6012044 90.66984009 205.375 101.3125 C206.23306152 102.46355017 207.09113451 103.61459177 207.94921875 104.765625 C213.98736829 112.95680614 219.34595521 121.47054105 224.375 130.3125 C224.73948242 130.94430176 225.10396484 131.57610352 225.47949219 132.22705078 C247.08534998 169.97532572 256.85198095 212.74189997 256.6875 255.9375 C256.68534485 256.95540619 256.6831897 257.97331238 256.68096924 259.02206421 C256.63129854 273.63113523 256.38040191 287.96325853 253.375 302.3125 C253.07698486 303.77478027 253.07698486 303.77478027 252.77294922 305.26660156 C242.65232806 353.6484774 220.7358123 397.63678269 186.375 433.3125 C185.74287598 433.97185547 185.11075195 434.63121094 184.45947266 435.31054688 C175.31502521 444.79880305 166.01765991 453.5387044 155.375 461.3125 C154.22394983 462.17056152 153.07290823 463.02863451 151.921875 463.88671875 C143.73224019 469.92427396 135.22961724 475.30707302 126.375 480.3125 C125.66778809 480.7146875 124.96057617 481.116875 124.23193359 481.53125 C101.09654164 494.5566741 75.92537591 503.30551461 49.9375 508.625 C49.21860596 508.77235596 48.49971191 508.91971191 47.7590332 509.0715332 C33.08339502 511.86090125 18.55831162 512.66142619 3.64770508 512.62817383 C0.70811513 512.6250221 -2.2304558 512.64854926 -5.16992188 512.67382812 C-18.54306192 512.71848737 -31.43916711 511.51301542 -44.625 509.3125 C-46.33055054 509.03031616 -46.33055054 509.03031616 -48.07055664 508.74243164 C-91.33802759 500.97044532 -132.38793216 480.98345309 -165.625 452.3125 C-166.37007813 451.67828125 -167.11515625 451.0440625 -167.8828125 450.390625 C-181.38779833 438.57948485 -194.05918743 425.82889772 -204.625 411.3125 C-205.48149066 410.16255169 -206.33826433 409.01281411 -207.1953125 407.86328125 C-213.23534209 399.67315742 -218.61867614 391.16870382 -223.625 382.3125 C-224.0271875 381.60528809 -224.429375 380.89807617 -224.84375 380.16943359 C-237.8691741 357.03404164 -246.61801461 331.86287591 -251.9375 305.875 C-252.08485596 305.15610596 -252.23221191 304.43721191 -252.3840332 303.6965332 C-255.35789088 288.05024391 -255.99800362 272.57681954 -255.9375 256.6875 C-255.93534485 255.66959381 -255.9331897 254.65168762 -255.93096924 253.60293579 C-255.88129854 238.99386477 -255.63040191 224.66174147 -252.625 210.3125 C-252.42632324 209.33764648 -252.22764648 208.36279297 -252.02294922 207.35839844 C-241.90232806 158.9765226 -219.9858123 114.98821731 -185.625 79.3125 C-184.99287598 78.65314453 -184.36075195 77.99378906 -183.70947266 77.31445312 C-174.56502521 67.82619695 -165.26765991 59.0862956 -154.625 51.3125 C-153.47394983 50.45443848 -152.32290823 49.59636549 -151.171875 48.73828125 C-142.98224019 42.70072604 -134.47961724 37.31792698 -125.625 32.3125 C-124.91778809 31.9103125 -124.21057617 31.508125 -123.48193359 31.09375 C-100.34654164 18.0683259 -75.17537591 9.31948539 -49.1875 4 C-48.46860596 3.85264404 -47.74971191 3.70528809 -47.0090332 3.5534668 C-31.36274391 0.57960912 -15.88931954 -0.06050362 0 0 Z M-110.5617981 109.97790527 C-112.4142141 111.72667274 -114.21621269 113.51328693 -116.00390625 115.328125 C-116.98846046 116.31193146 -116.98846046 116.31193146 -117.99290466 117.31561279 C-119.36859514 118.69362539 -120.74063964 120.07528685 -122.10913086 121.46044922 C-124.17732187 123.5522059 -126.2584819 125.63034869 -128.34179688 127.70703125 C-142.98833786 142.38218733 -155.28134121 156.40425224 -155.625 178.3125 C-153.21633968 227.89075827 -110.51864921 288.74472039 -76.12890625 321.80859375 C-74.53690589 323.40059411 -73.11907324 325.07552447 -71.6875 326.8125 C-69.00937858 329.98969392 -66.08204275 332.64661363 -62.9140625 335.328125 C-61.28996607 336.73604477 -59.70466722 338.18928391 -58.1484375 339.671875 C-39.32124052 357.5974879 -17.21712009 371.65538271 5.375 384.3125 C6.06255371 384.7029248 6.75010742 385.09334961 7.45849609 385.49560547 C31.73397872 399.22015476 64.8565737 417.2200773 93.375 410.3125 C110.56884608 404.948519 123.00430137 390.88698107 135.48095703 378.50170898 C136.57971838 377.41453244 137.68294878 376.33185461 138.79052734 375.25366211 C149.99188445 364.62342056 149.99188445 364.62342056 156.13671875 350.7734375 C156.11222656 349.75507813 156.08773438 348.73671875 156.0625 347.6875 C156.06636719 346.66398438 156.07023437 345.64046875 156.07421875 344.5859375 C153.99486319 334.85130085 145.51322145 328.00997311 138.72265625 321.26171875 C137.57788558 320.11492354 136.43356026 318.96768361 135.28965759 317.82002258 C132.90147668 315.42743984 130.50800807 313.04031392 128.1105957 310.65698242 C125.04617873 307.60969478 121.99548163 304.54908149 118.94860172 301.48427105 C116.59222643 299.11703312 114.2287253 296.75701389 111.8630352 294.39908791 C110.73536756 293.27341339 109.60990169 292.14552852 108.48674202 291.01535606 C106.91507655 289.43603095 105.3340415 287.866707 103.75024414 286.29956055 C102.40718956 284.96008614 102.40718956 284.96008614 101.03700256 283.59355164 C95.69258959 279.01396102 90.32021943 277.17405709 83.375 277.3125 C70.035445 279.09110733 59.27039487 294.29099671 50.25 303.375 C48.99502796 304.63500102 47.73982114 305.89476824 46.484375 307.15429688 C43.44520916 310.20434853 40.40921773 313.2575262 37.375 316.3125 C30.58798261 314.29707374 24.43930261 311.55624176 18.1875 308.25 C17.26839844 307.76466797 16.34929687 307.27933594 15.40234375 306.77929688 C2.49577558 299.82891107 -8.70878181 291.04311568 -19.625 281.3125 C-20.40230469 280.62027344 -21.17960938 279.92804688 -21.98046875 279.21484375 C-36.52082489 265.4690426 -47.03835003 247.92698584 -55.8125 230.125 C-56.2240332 229.31047363 -56.63556641 228.49594727 -57.05957031 227.65673828 C-57.4253418 226.88958496 -57.79111328 226.12243164 -58.16796875 225.33203125 C-58.49821045 224.65245361 -58.82845215 223.97287598 -59.16870117 223.27270508 C-59.79143409 220.59751908 -58.99834874 219.6511891 -57.625 217.3125 C-56.19656372 215.67047119 -56.19656372 215.67047119 -54.52392578 214.04785156 C-53.89632355 213.43331116 -53.26872131 212.81877075 -52.62210083 212.18560791 C-51.94501068 211.53138855 -51.26792053 210.87716919 -50.5703125 210.203125 C-49.13643951 208.79455504 -47.70285484 207.38569152 -46.26953125 205.9765625 C-44.01316611 203.769707 -41.75376931 201.5661578 -39.48876953 199.36816406 C-37.29862636 197.23879174 -35.12139015 195.0968566 -32.9453125 192.953125 C-32.27227081 192.30700256 -31.59922913 191.66088013 -30.90579224 190.99517822 C-24.9930461 185.14546255 -21.09941484 178.9700988 -20.53515625 170.53515625 C-21.03577023 158.1504016 -33.503318 149.2612764 -41.59765625 141.13671875 C-42.11331083 140.61823679 -42.62896542 140.09975483 -43.1602459 139.56556129 C-45.88125277 136.8296832 -48.60502768 134.09659883 -51.33129883 131.3659668 C-54.13436624 128.55738575 -56.92800941 125.73961951 -59.71962833 122.91966534 C-61.88251275 120.73812703 -64.05210558 118.56335497 -66.22356987 116.39035988 C-67.256635 115.35428156 -68.28721484 114.31571864 -69.3151722 113.27457237 C-70.75264524 111.81995642 -72.19938574 110.37519696 -73.64868164 108.93237305 C-74.46695938 108.11044968 -75.28523712 107.28852631 -76.12831116 106.44169617 C-87.97629753 96.33763885 -100.01378003 100.90792273 -110.5617981 109.97790527 Z " fill="#FC0004" transform="translate(255.625,-0.3125)"/>
</svg>
