<?xml version="1.0" encoding="UTF-8"?>
<svg xmlns="http://www.w3.org/2000/svg" id="Layer_1" data-name="Layer 1" width="149.58" height="160.61" viewBox="0 0 149.58 160.61">
  <defs>
    <style>
      .cls-1 {
        fill: #fbca45;
      }

      .cls-1, .cls-2, .cls-3, .cls-4, .cls-5, .cls-6 {
        stroke-width: 0px;
      }

      .cls-2 {
        fill: #707484;
      }

      .cls-3 {
        fill: #fff8d2;
      }

      .cls-4 {
        fill: #010101;
      }

      .cls-5 {
        fill: #2dabe2;
      }

      .cls-6 {
        fill: #e74d3d;
      }
    </style>
  </defs>
  <g>
    <path class="cls-5" d="M111.93,21.39c7.74,0,25.25-.56,30.97-.56,2.96,0,5.36,2.41,5.36,5.37v100.27c0,2.96-2.41,5.37-5.36,5.37H6.68c-2.96,0-5.36-2.41-5.36-5.37V26.2c0-2.96,2.41-5.37,5.36-5.37h30.97"></path>
    <path class="cls-4" d="M142.9,133.15H6.68c-3.68,0-6.68-3-6.68-6.68V26.2c0-3.69,3-6.68,6.68-6.68h30.97c.73,0,1.32.59,1.32,1.32s-.59,1.32-1.32,1.32H6.68c-2.23,0-4.05,1.82-4.05,4.05v100.27c0,2.23,1.82,4.05,4.05,4.05h136.22c2.23,0,4.04-1.82,4.04-4.05V26.2c0-2.23-1.81-4.05-4.04-4.05-2.63,0-7.83.12-13.33.25-6.62.15-13.46.31-17.64.31-.73,0-1.32-.59-1.32-1.32s.59-1.32,1.32-1.32c4.15,0,11.28-.17,17.58-.31,5.52-.13,10.73-.25,13.39-.25,3.68,0,6.68,3,6.68,6.68v100.27c0,3.69-3,6.68-6.68,6.68Z"></path>
  </g>
  <g>
    <polygon class="cls-3" points="59.84 131.83 89.74 131.83 92.62 149.95 56.94 149.95 59.84 131.83"></polygon>
    <path class="cls-4" d="M92.66,151.27s-.03,0-.04,0h-35.68c-.39,0-.75-.17-1-.46-.25-.29-.36-.68-.3-1.06l2.9-18.12c.1-.64.65-1.11,1.3-1.11h29.9c.65,0,1.2.47,1.3,1.11l2.82,17.81c.07.16.11.34.11.52,0,.73-.59,1.32-1.32,1.32ZM58.49,148.64h32.59l-2.46-15.48h-27.65l-2.48,15.48Z"></path>
  </g>
  <g>
    <rect class="cls-2" x="45.4" y="149.95" width="58.8" height="9.33"></rect>
    <path class="cls-4" d="M104.19,160.61h-58.8c-.73,0-1.32-.59-1.32-1.32v-9.33c0-.73.59-1.32,1.32-1.32h58.8c.73,0,1.32.59,1.32,1.32v9.33c0,.73-.59,1.32-1.32,1.32ZM46.71,157.97h56.16v-6.7h-56.16v6.7Z"></path>
  </g>
  <path class="cls-4" d="M148.27,110.3H1.32c-.73,0-1.32-.59-1.32-1.32s.59-1.32,1.32-1.32h146.95c.73,0,1.32.59,1.32,1.32s-.59,1.32-1.32,1.32Z"></path>
  <g>
    <path class="cls-1" d="M74.78,115.08c2.95,0,5.33,2.38,5.33,5.33s-2.38,5.31-5.33,5.31-5.31-2.38-5.31-5.31,2.38-5.33,5.31-5.33Z"></path>
    <path class="cls-4" d="M74.78,127.05c-3.65,0-6.63-2.98-6.63-6.63s2.97-6.65,6.63-6.65,6.65,2.98,6.65,6.65-2.98,6.63-6.65,6.63ZM74.78,116.4c-2.2,0-3.99,1.8-3.99,4.02s1.79,4,3.99,4,4.01-1.79,4.01-4-1.8-4.02-4.01-4.02Z"></path>
  </g>
  <g>
    <rect class="cls-3" x="37.65" y="1.32" width="74.28" height="88.15"></rect>
    <path class="cls-4" d="M111.93,90.78H37.65c-.73,0-1.32-.59-1.32-1.32V1.32c0-.73.59-1.32,1.32-1.32h74.28c.73,0,1.32.59,1.32,1.32v88.15c0,.73-.59,1.32-1.32,1.32ZM38.97,88.15h71.64V2.64H38.97v85.51Z"></path>
  </g>
  <path class="cls-4" d="M111.93,27.63H37.65c-.73,0-1.32-.59-1.32-1.32s.59-1.32,1.32-1.32h74.28c.73,0,1.32.59,1.32,1.32s-.59,1.32-1.32,1.32Z"></path>
  <path class="cls-4" d="M49.53,18.43c-2.54,0-4.6-2.08-4.6-4.63s2.06-4.6,4.6-4.6,4.6,2.06,4.6,4.6-2.06,4.63-4.6,4.63ZM49.53,11.84c-1.08,0-1.96.88-1.96,1.96s.86,2,1.96,2,1.96-.9,1.96-2-.88-1.96-1.96-1.96Z"></path>
  <path class="cls-4" d="M66.46,18.43c-2.54,0-4.6-2.08-4.6-4.63s2.06-4.6,4.6-4.6,4.6,2.06,4.6,4.6-2.06,4.63-4.6,4.63ZM66.46,11.84c-1.08,0-1.96.88-1.96,1.96s.86,2,1.96,2,1.96-.9,1.96-2-.88-1.96-1.96-1.96Z"></path>
  <g>
    <path class="cls-6" d="M78.39,38.05c3.58,0,7.39-.82,9.58,2.06,2.13,2.77,5.47,3.83,6.51,6.7,1.04,2.88,3.64,6,2.35,9.58-1.8,5.01-.03,10.48-3.45,13.66-2.79,2.55-4.87,6.63-9.22,6.76-1.78.06-3.56.99-5.77.99v-39.75Z"></path>
    <path class="cls-4" d="M78.39,79.12c-.73,0-1.32-.59-1.32-1.32v-39.75c0-.73.59-1.32,1.32-1.32.64,0,1.28-.03,1.92-.05.67-.03,1.33-.06,1.99-.06,2.31,0,4.92.32,6.72,2.68.79,1.03,1.84,1.84,2.85,2.62,1.53,1.19,3.12,2.42,3.85,4.43.24.68.6,1.39.97,2.15,1.13,2.29,2.53,5.14,1.38,8.33-.67,1.85-.8,3.83-.94,5.74-.21,3.04-.43,6.18-2.85,8.43-.69.63-1.34,1.36-2.02,2.14-2.01,2.27-4.28,4.85-8.05,4.97-.67.02-1.41.21-2.19.41-1.06.27-2.25.58-3.63.58ZM79.71,39.34v37.02c.57-.1,1.12-.24,1.65-.37.89-.23,1.8-.46,2.76-.49,2.63-.08,4.35-2.02,6.16-4.08.7-.79,1.43-1.62,2.21-2.34,1.65-1.53,1.82-3.92,2.01-6.67.14-2,.3-4.26,1.09-6.46.76-2.13-.22-4.14-1.27-6.27-.39-.79-.79-1.61-1.08-2.42-.47-1.3-1.63-2.2-2.98-3.24-1.09-.84-2.32-1.8-3.33-3.1-.91-1.19-2.2-1.65-4.62-1.65-.62,0-1.24.03-1.88.05-.24,0-.48.02-.71.03Z"></path>
  </g>
  <path class="cls-4" d="M86.57,59.93c-.65,0-1.22-.48-1.31-1.15-.09-.72.41-1.38,1.14-1.48.35-.05,1.32-.72,1.66-1.07.51-.52,1.35-.53,1.86-.02.52.51.53,1.34.02,1.86-.02.02-1.69,1.64-3.21,1.83-.06,0-.11.01-.17.01Z"></path>
  <g>
    <path class="cls-6" d="M71.17,38.05c-3.56,0-7.39-.82-9.58,2.06-2.11,2.77-5.47,3.83-6.48,6.7-1.07,2.88-3.64,6-2.35,9.58,1.81,5.01.03,10.48,3.45,13.66,2.76,2.55,4.87,6.63,9.22,6.76,1.75.06,3.53.99,5.74.99v-39.75Z"></path>
    <path class="cls-4" d="M71.17,79.12c-1.38,0-2.58-.31-3.63-.58-.77-.2-1.5-.39-2.15-.41-3.79-.12-6.08-2.72-8.1-5.01-.67-.76-1.31-1.48-1.97-2.1-2.43-2.25-2.64-5.39-2.86-8.43-.13-1.92-.27-3.9-.94-5.75-1.15-3.21.26-6.08,1.4-8.38.35-.72.7-1.42.96-2.11.7-2,2.29-3.23,3.83-4.42,1.01-.78,2.05-1.59,2.84-2.63,1.8-2.36,4.41-2.68,6.73-2.68.65,0,1.32.03,1.99.06.64.03,1.28.05,1.91.05.73,0,1.32.59,1.32,1.32v39.75c0,.73-.59,1.32-1.32,1.32ZM67.27,39.26c-2.43,0-3.73.46-4.63,1.64-1,1.31-2.24,2.27-3.33,3.11-1.34,1.04-2.51,1.94-2.96,3.23-.29.79-.68,1.57-1.07,2.38-1.06,2.15-2.06,4.17-1.28,6.33.79,2.19.95,4.45,1.09,6.45.19,2.76.36,5.14,2.02,6.68.76.7,1.47,1.51,2.16,2.29,1.83,2.08,3.56,4.04,6.21,4.12.94.03,1.85.26,2.72.49.54.14,1.09.28,1.66.38v-37.02c-.23,0-.47-.02-.7-.03-.63-.03-1.26-.05-1.88-.05Z"></path>
  </g>
  <path class="cls-4" d="M87.36,50.87s-.08,0-.12,0c-1.28-.12-2.69-1.29-3.23-1.79-.54-.49-.58-1.33-.08-1.86.49-.54,1.33-.57,1.86-.08.67.61,1.43,1.08,1.69,1.11.72.08,1.25.73,1.18,1.45-.07.68-.63,1.19-1.3,1.19Z"></path>
  <path class="cls-4" d="M85.56,67.81c-.05,0-.11,0-.16,0-1.43-.18-3.02-1.63-3.2-1.8-.53-.5-.56-1.33-.06-1.86s1.33-.56,1.86-.06c.54.51,1.42,1.07,1.72,1.11.72.09,1.24.75,1.15,1.47-.08.67-.65,1.16-1.31,1.16Z"></path>
  <path class="cls-4" d="M62.03,59.93c-.06,0-.11,0-.17-.01-1.47-.19-3.18-1.78-3.19-1.8-.53-.5-.56-1.33-.06-1.86.5-.53,1.33-.56,1.86-.06.46.44,1.4,1.06,1.73,1.11.72.1,1.23.76,1.13,1.48-.09.66-.65,1.15-1.3,1.15Z"></path>
  <path class="cls-4" d="M61.23,50.87c-.67,0-1.25-.51-1.31-1.2-.07-.72.46-1.37,1.19-1.43.29-.04,1.12-.58,1.7-1.11.54-.49,1.37-.45,1.86.08.49.54.45,1.37-.08,1.86-.42.39-1.91,1.66-3.23,1.78-.04,0-.08,0-.12,0Z"></path>
  <path class="cls-4" d="M63.04,67.81c-.65,0-1.22-.49-1.31-1.15-.09-.72.42-1.38,1.14-1.47.33-.04,1.25-.66,1.73-1.11.53-.5,1.36-.47,1.86.06.5.53.47,1.36-.06,1.86-.07.07-1.73,1.61-3.2,1.8-.06,0-.11.01-.17.01Z"></path>
</svg>
